<svg xmlns="http://www.w3.org/2000/svg" xmlns:xlink="http://www.w3.org/1999/xlink" width="1280" height="800" viewBox="0 0 1280 800">
  <defs>
    <style>
      .cls-1, .cls-11, .cls-16, .cls-17, .cls-21, .cls-4, .cls-5, .cls-6, .cls-7, .cls-8, .cls-9 {
        fill: none;
      }

      .cls-2 {
        opacity: 0.25;
      }

      .cls-3 {
        clip-path: url(#clip-path);
      }

      .cls-4, .cls-9 {
        stroke: #333;
      }

      .cls-11, .cls-16, .cls-17, .cls-21, .cls-4, .cls-5, .cls-6, .cls-7, .cls-8, .cls-9 {
        stroke-miterlimit: 10;
      }

      .cls-4 {
        stroke-width: 2.987px;
      }

      .cls-11, .cls-5, .cls-6, .cls-7 {
        stroke: #4d4d4d;
      }

      .cls-6 {
        stroke-width: 0.559px;
      }

      .cls-7 {
        stroke-width: 0.305px;
      }

      .cls-16, .cls-8 {
        stroke: #f8cd36;
      }

      .cls-8 {
        stroke-width: 0.365px;
      }

      .cls-10 {
        fill: url(#radial-gradient);
      }

      .cls-11 {
        stroke-width: 1.151px;
      }

      .cls-12 {
        fill: url(#radial-gradient-2);
      }

      .cls-13 {
        fill: url(#radial-gradient-3);
      }

      .cls-14 {
        fill: url(#radial-gradient-4);
      }

      .cls-15 {
        fill: url(#radial-gradient-5);
      }

      .cls-17 {
        stroke: #666;
      }

      .cls-18 {
        fill: url(#linear-gradient);
      }

      .cls-19 {
        fill: url(#linear-gradient-2);
      }

      .cls-20 {
        fill: url(#linear-gradient-3);
      }

      .cls-21 {
        stroke: #707070;
        stroke-width: 5.477px;
      }

      .cls-22 {
        fill: url(#radial-gradient-6);
      }
    </style>
    <clipPath id="clip-path">
      <rect id="SVGID" class="cls-1" width="1280" height="800" transform="translate(0 0)"/>
    </clipPath>
    <radialGradient id="radial-gradient" cx="0.493" cy="0.5" r="0.573" gradientTransform="translate(0)" gradientUnits="objectBoundingBox">
      <stop offset="0" stop-color="#f8cd36"/>
      <stop offset="1" stop-color="#f8cd36" stop-opacity="0"/>
    </radialGradient>
    <radialGradient id="radial-gradient-2" cx="0.493" cy="0.5" r="0.573" xlink:href="#radial-gradient"/>
    <radialGradient id="radial-gradient-3" cx="0.495" cy="0.495" r="0.575" xlink:href="#radial-gradient"/>
    <radialGradient id="radial-gradient-4" cx="0.52" cy="0.499" r="0.625" xlink:href="#radial-gradient"/>
    <radialGradient id="radial-gradient-5" cx="0.486" cy="0.483" r="0.627" xlink:href="#radial-gradient"/>
    <linearGradient id="linear-gradient" x1="0.178" y1="0.799" x2="1.204" y2="-0.161" gradientTransform="matrix(1, 0, 0, 1, 0, 0)" xlink:href="#radial-gradient"/>
    <linearGradient id="linear-gradient-2" x1="0.068" y1="0.796" x2="1.04" y2="0.124" gradientTransform="matrix(1, 0, 0, 1, 0, 0)" xlink:href="#radial-gradient"/>
    <linearGradient id="linear-gradient-3" x1="0.123" y1="0.887" x2="0.942" y2="0.04" gradientTransform="matrix(1, 0, 0, 1, 0, 0)" xlink:href="#radial-gradient"/>
    <radialGradient id="radial-gradient-6" cx="0.477" cy="0.497" r="0.618" xlink:href="#radial-gradient"/>
  </defs>
  <g id="bg_down" data-name="bg down" class="cls-2" transform="translate(0 -1.786)">
    <g id="Group_199" data-name="Group 199" class="cls-3" transform="translate(0 1.786)">
      <g id="Group_181" data-name="Group 181" transform="translate(368.709 387.853)">
        <g id="Group_180" data-name="Group 180">
          <path id="Path_78" data-name="Path 78" class="cls-4" d="M839.114,714.361v24.527c-.092,2.6-1.859,3.289-4.027,3.691-7.405,1.37-14.785,2.881-22.2,4.173-2.285.4-3.664,1.329-4.23,3.643-1.06,4.339-2.237,8.65-3.446,12.951a2.224,2.224,0,0,0,.779,2.546c2.869,2.557,5.71,5.144,8.565,7.717,3.541,3.191,7.072,6.392,10.635,9.558a2.673,2.673,0,0,1,.7,3.715c-4.12,7.269-8.165,14.58-12.366,21.8-1.3,2.232-2.015,2.366-4.494,1.5q-11.822-4.146-23.6-8.421a2.18,2.18,0,0,0-2.759.606c-3.389,3.559-6.806,7.1-10.375,10.471-1.365,1.289-1.431,2.332-.816,3.992,2.815,7.605,5.5,15.259,8.187,22.912.794,2.262.583,2.783-1.194,4.12a16.177,16.177,0,0,1-1.688,1.148c-6.121,3.489-12.175,7.1-18.4,10.4-4.461,2.358-3.915,2.573-7.421-1.3-5.287-5.841-10.355-11.882-15.474-17.873a1.915,1.915,0,0,0-2.335-.734c-4.575,1.3-9.172,2.53-13.794,3.653a3.371,3.371,0,0,0-2.853,3.015q-1.118,6.39-2.371,12.756c-.81,4.1-1.707,8.177-2.558,12.267a2.482,2.482,0,0,1-2.583,2.277,4.529,4.529,0,0,0-.985.237H684.649a12.9,12.9,0,0,0-1.269-.261c-2.089-.224-2.484-.482-3-2.532q-.881-3.534-1.565-7.116c-1.109-5.824-2.2-11.652-3.211-17.495a3.51,3.51,0,0,0-3.183-3.215c-2.147-.393-4.263-.959-6.388-1.473-2.5-.6-5-1.217-7.491-1.861a2,2,0,0,0-2.269.842c-1.378,1.7-2.809,3.361-4.255,5-4.179,4.745-8.393,9.461-12.559,14.217a2.655,2.655,0,0,1-3.719.631c-7.271-4.116-14.58-8.167-21.8-12.367-2.187-1.272-2.327-1.978-1.49-4.37q4.188-11.963,8.507-23.881a1.9,1.9,0,0,0-.5-2.395q-5.731-5.518-11.321-11.183a1.922,1.922,0,0,0-2.4-.5q-11.566,4.219-23.175,8.317c-3.1,1.089-3.682.912-5.385-1.876-2.761-4.521-5.418-9.107-8.021-13.721-1.478-2.621-2.744-5.36-4.143-8.027a2.135,2.135,0,0,1,.508-2.859c2.25-2.08,4.444-4.223,6.737-6.254,4.3-3.806,8.667-7.531,12.956-11.348a2.341,2.341,0,0,0,.8-1.8c-1.251-5.044-2.621-10.058-3.973-15.077a2.609,2.609,0,0,0-2.361-2.047c-2.211-.329-4.409-.745-6.605-1.165-6.012-1.151-12.031-2.271-18.025-3.511-2.41-.5-2.787-.927-2.823-3.345-.121-8.025-.13-16.053-.17-24.079,0-.483.135-.967.147-1.451a2.279,2.279,0,0,1,1.983-2.341c1.655-.393,3.3-.841,4.966-1.163,6.728-1.3,13.459-2.58,20.2-3.807a3.462,3.462,0,0,0,3.151-2.888c1.138-4.719,2.425-9.4,3.724-14.081a1.427,1.427,0,0,0-.5-1.749c-2.539-2.121-5.068-4.255-7.553-6.439-4.165-3.659-8.29-7.363-12.438-11.041a2.54,2.54,0,0,1-.6-3.494c4.127-7.321,8.191-14.679,12.407-21.948,1.267-2.186,2.006-2.345,4.368-1.519q12.035,4.206,24.021,8.554a1.8,1.8,0,0,0,2.261-.507q5.481-5.666,11.083-11.214a2.119,2.119,0,0,0,.619-2.631q-4.31-11.766-8.441-23.6c-.861-2.449-.653-3.091,1.508-4.509,2.4-1.573,4.853-3.061,7.351-4.467,4.531-2.549,9.079-5.072,13.685-7.484,2.736-1.433,2.921-1.329,5.141.883q1.808,1.8,3.478,3.74c4.409,5.129,8.778,10.292,13.205,15.4a1.941,1.941,0,0,0,1.523.659c4.99-1.257,9.955-2.613,14.929-3.935a2.569,2.569,0,0,0,2.092-2.147c.53-2.817,1.133-5.621,1.678-8.435,1.091-5.629,2.111-11.271,3.267-16.886.458-2.224.895-2.527,3.183-2.64,3.109-.153,6.223-.258,9.335-.247,5.4.019,10.8.145,16.2.217a2.388,2.388,0,0,1,2.517,2.148c.257,1.186.623,2.35.851,3.541,1.379,7.207,2.765,14.414,4.07,21.635a3.37,3.37,0,0,0,2.886,2.976c4.713,1.161,9.4,2.429,14.081,3.723a1.405,1.405,0,0,0,1.754-.475c1-1.253,2.075-2.45,3.129-3.661,4.533-5.212,9.01-10.475,13.633-15.607,2.109-2.341,2.385-2.385,5.114-.89q10.291,5.637,20.431,11.545c2.941,1.718,3.055,2.278,1.935,5.464q-4.088,11.615-8.305,23.184a1.834,1.834,0,0,0,.459,2.284q5.611,5.538,11.077,11.22a2.172,2.172,0,0,0,2.751.613q11.7-4.275,23.459-8.377c2.679-.939,3.3-.749,4.816,1.683,2.342,3.751,4.592,7.563,6.781,11.406,1.755,3.081,3.418,6.219,5.013,9.386,1.391,2.761,1.348,2.889-.831,5-1.887,1.826-3.847,3.579-5.8,5.33-4.242,3.8-8.517,7.555-12.737,11.373-.487.441-1.121,1.267-1,1.744,1.273,5.085,2.673,10.139,4.065,15.194A2.722,2.722,0,0,0,811.6,706.2c7.834,1.464,15.653,3.008,23.488,4.462C837.268,711.066,839,711.785,839.114,714.361ZM695.953,793.949c37.208,0,67.409-30.964,67.423-67.677.013-33.855-28.179-66.727-66.9-66.973a67.325,67.325,0,1,0-.521,134.649Z" transform="translate(-553.063 -583.566)"/>
        </g>
      </g>
      <g id="Group_183" data-name="Group 183" transform="translate(1136.975 379.089)">
        <g id="Group_182" data-name="Group 182">
          <path id="Path_79" data-name="Path 79" class="cls-4" d="M1991.513,701.215v24.528c-.092,2.6-1.859,3.289-4.027,3.69-7.405,1.371-14.785,2.881-22.2,4.174-2.285.4-3.664,1.328-4.23,3.643-1.06,4.339-2.237,8.651-3.446,12.951a2.226,2.226,0,0,0,.779,2.547c2.869,2.557,5.71,5.144,8.565,7.716,3.541,3.191,7.072,6.393,10.635,9.558a2.673,2.673,0,0,1,.7,3.715c-4.12,7.269-8.165,14.58-12.366,21.8-1.3,2.232-2.015,2.367-4.494,1.5q-11.822-4.146-23.6-8.421a2.178,2.178,0,0,0-2.759.606c-3.389,3.558-6.806,7.1-10.376,10.471-1.364,1.289-1.43,2.332-.815,3.992,2.815,7.605,5.5,15.259,8.187,22.912.794,2.262.583,2.783-1.194,4.12a16.079,16.079,0,0,1-1.688,1.148c-6.121,3.489-12.175,7.105-18.4,10.4-4.461,2.358-3.915,2.573-7.421-1.3-5.287-5.841-10.355-11.882-15.474-17.873a1.916,1.916,0,0,0-2.335-.734c-4.574,1.3-9.173,2.531-13.794,3.654a3.369,3.369,0,0,0-2.853,3.015q-1.118,6.39-2.371,12.756c-.81,4.1-1.707,8.177-2.558,12.267a2.481,2.481,0,0,1-2.584,2.277,4.574,4.574,0,0,0-.984.237h-23.359a12.874,12.874,0,0,0-1.269-.262c-2.089-.224-2.484-.482-3-2.532q-.881-3.533-1.564-7.115c-1.109-5.825-2.2-11.653-3.211-17.5a3.51,3.51,0,0,0-3.183-3.215c-2.147-.393-4.264-.959-6.388-1.473-2.5-.6-5-1.217-7.491-1.861a2,2,0,0,0-2.269.842c-1.378,1.7-2.809,3.361-4.255,5-4.179,4.745-8.393,9.461-12.559,14.217a2.655,2.655,0,0,1-3.719.631c-7.271-4.116-14.58-8.167-21.8-12.367-2.187-1.272-2.327-1.977-1.49-4.369q4.188-11.964,8.507-23.881a1.9,1.9,0,0,0-.5-2.395q-5.731-5.518-11.321-11.183a1.922,1.922,0,0,0-2.4-.5q-11.566,4.218-23.176,8.317c-3.1,1.089-3.683.913-5.385-1.876-2.761-4.521-5.418-9.107-8.021-13.721-1.478-2.62-2.744-5.36-4.143-8.027a2.135,2.135,0,0,1,.508-2.859c2.25-2.08,4.443-4.223,6.737-6.253,4.3-3.806,8.667-7.531,12.956-11.349a2.34,2.34,0,0,0,.8-1.8c-1.251-5.044-2.621-10.058-3.973-15.077a2.611,2.611,0,0,0-2.361-2.048c-2.211-.329-4.409-.745-6.605-1.165-6.012-1.15-12.031-2.27-18.025-3.51-2.41-.5-2.787-.927-2.823-3.346-.122-8.025-.13-16.053-.17-24.079,0-.483.135-.966.147-1.451a2.28,2.28,0,0,1,1.983-2.342c1.655-.393,3.3-.841,4.966-1.163,6.728-1.3,13.459-2.58,20.2-3.806a3.462,3.462,0,0,0,3.151-2.889c1.138-4.719,2.425-9.4,3.724-14.081a1.426,1.426,0,0,0-.5-1.748c-2.539-2.122-5.068-4.256-7.553-6.439-4.165-3.659-8.29-7.363-12.438-11.041a2.54,2.54,0,0,1-.6-3.494c4.126-7.321,8.191-14.679,12.407-21.948,1.267-2.185,2.006-2.345,4.368-1.519q12.035,4.206,24.021,8.555a1.8,1.8,0,0,0,2.261-.508q5.481-5.665,11.083-11.213a2.12,2.12,0,0,0,.619-2.631q-4.31-11.767-8.44-23.6c-.861-2.449-.653-3.091,1.508-4.509,2.4-1.573,4.854-3.061,7.351-4.467,4.531-2.549,9.079-5.073,13.685-7.485,2.736-1.433,2.921-1.329,5.141.883q1.808,1.8,3.478,3.74c4.409,5.129,8.778,10.292,13.205,15.4a1.943,1.943,0,0,0,1.523.659c4.99-1.257,9.955-2.613,14.929-3.935a2.57,2.57,0,0,0,2.092-2.147c.53-2.817,1.133-5.62,1.678-8.435,1.091-5.628,2.111-11.271,3.267-16.885.458-2.224.895-2.527,3.183-2.64,3.109-.153,6.223-.258,9.335-.247,5.4.018,10.8.145,16.2.217a2.388,2.388,0,0,1,2.517,2.147c.257,1.186.623,2.35.851,3.541,1.379,7.208,2.765,14.415,4.07,21.635a3.371,3.371,0,0,0,2.886,2.976c4.713,1.161,9.4,2.43,14.081,3.724a1.406,1.406,0,0,0,1.754-.476c1-1.252,2.075-2.45,3.129-3.661,4.533-5.212,9.01-10.475,13.633-15.606,2.109-2.341,2.385-2.385,5.115-.89q10.291,5.636,20.431,11.544c2.941,1.718,3.055,2.279,1.935,5.464q-4.088,11.615-8.305,23.184a1.834,1.834,0,0,0,.459,2.285q5.611,5.537,11.077,11.219a2.171,2.171,0,0,0,2.751.613q11.7-4.274,23.459-8.376c2.679-.939,3.3-.749,4.816,1.683,2.342,3.751,4.592,7.563,6.781,11.406,1.755,3.081,3.418,6.219,5.013,9.386,1.391,2.761,1.348,2.888-.831,5-1.887,1.825-3.847,3.578-5.8,5.329-4.242,3.8-8.517,7.555-12.738,11.373-.487.441-1.121,1.268-1,1.744,1.273,5.085,2.673,10.139,4.065,15.194a2.721,2.721,0,0,0,2.426,1.982c7.834,1.465,15.653,3.008,23.488,4.462C1989.667,697.919,1991.4,698.639,1991.513,701.215ZM1848.352,780.8c37.208,0,67.409-30.963,67.423-67.677.013-33.855-28.179-66.726-66.9-66.973a67.325,67.325,0,1,0-.521,134.649Z" transform="translate(-1705.462 -570.42)"/>
        </g>
      </g>
      <path id="Path_80" data-name="Path 80" class="cls-5" d="M1057.655,766.461c4.255-1.774,8-4.814,11.511-4.562,26.661,1.915,42.707-11.328,51.065-35.25,1.847-5.285,2.629-11.895,1.2-17.156-2.277-8.355-6.692-16.155-10.465-24.065-3.559-7.46-1.4-12.847,5.368-16.9.357-.214.673-.5,1.035-.7,40.479-22.857,29.268-24.15,54.861,9.447,5.227,6.861,10.937,7.5,18.907,8.519,23.173,2.978,36.611-6.832,44.82-27.457,4.279-10.751,11.926-12.731,22.059-6.155a97.894,97.894,0,0,0,20.135,10.021c9.337,3.339,12.167,10.283,7.991,17.643-12.151,21.421-10.783,39.023,4.744,59.734,8.906,11.879,16.056,17.2,29.951,17.955,28.858,1.559,26.693-1.161,27.122,28.5.055,3.757-.125,7.537.223,11.267.854,9.14-3.013,16.019-12.2,14.9-30.714-3.743-42.494,17.045-53.3,39.413-1.278,2.645-1.043,6.222-.821,9.318.14,1.959,1.569,3.821,2.4,5.736,17.753,40.944,19.531,28.75-20.64,53.92-6.346,3.976-11.91,2.937-15.992-3.729-.651-1.063-1.482-2.015-2.232-3.018-20.047-26.813-20.059-26.971-52.936-24.431-3.407.263-7.449,3.128-9.661,5.977-6.132,7.895-10.711,17.1-17.437,24.377-2.923,3.161-10.319,5.033-14.423,3.677a101.142,101.142,0,0,1-26.7-13.454c-3.537-2.523-7.038-10.992-5.419-13.914,12.316-22.219,11.484-41.209-4.975-62.221-7.932-10.127-13.7-15.685-26.647-16.838-32.174-2.866-29.561,3.182-30.049-32.339C1057.06,778.929,1057.452,773.177,1057.655,766.461Zm113.821,73.525c30.417,17.835,66.2,9.157,83.637-20.285,17.225-29.079,8-67.258-20.374-84.353-28.892-17.405-68.1-7.239-85.017,22.045A60.394,60.394,0,0,0,1171.476,839.985Z" transform="translate(-352.376 -217.324)"/>
      <path id="Path_81" data-name="Path 81" class="cls-6" d="M259.425,416.092c2.543.415,5.217.078,6.808,1.233,12.083,8.779,23.6,7.231,34.631-1.651a17.188,17.188,0,0,0,5.631-7.786c1.385-4.636,1.593-9.64,2.138-14.506.513-4.589,3.126-6.509,7.534-6.432.233,0,.467-.039.7-.029,25.951,1.1,21.013-2.819,23.239,20.675.454,4.8,2.976,6.784,6.455,9.623,10.115,8.253,19.385,7.565,29.368.2,5.2-3.837,9.416-2.52,12.282,3.591a54.705,54.705,0,0,0,6.595,10.7c3.444,4.34,2.737,8.469-1.417,10.729-12.087,6.576-16.634,15.331-15.381,29.739.719,8.265,2.539,12.9,8.91,17.359,13.231,9.258,13.006,7.329,4.454,21.529-1.083,1.8-2.284,3.539-3.22,5.411-2.293,4.589-6.157,6.711-10.187,3.467-13.467-10.841-25.191-4.456-36.921,2.965-1.387.877-2.331,2.644-3.14,4.178-.512.971-.383,2.276-.555,3.429-3.663,24.665.78,19.4-25.707,19.489-4.184.013-6.517-2.122-6.487-6.489.005-.7-.108-1.393-.168-2.091-1.6-18.637-1.555-18.716-17.9-27.215-1.694-.881-4.457-.715-6.348-.017-5.239,1.936-10.13,4.953-15.467,6.419-2.319.637-6.381-.658-7.928-2.513a56.524,56.524,0,0,1-8.7-14.264c-.933-2.241-.095-7.293,1.536-8.2,12.4-6.907,17.612-16.161,16.006-30.987-.775-7.146-1.87-11.485-7.673-15.854-14.418-10.856-14.963-7.215-4.71-24.212C255.462,421.832,257.346,419.219,259.425,416.092Zm32.3,68.478c9.166,17.439,28.7,23.883,45.667,15.063,16.755-8.711,23.649-29.546,15.232-46.033-8.569-16.785-30.17-23.535-46.841-14.635A33.745,33.745,0,0,0,291.722,484.57Z" transform="translate(-82.267 -130.164)"/>
      <path id="Path_82" data-name="Path 82" class="cls-7" d="M17.67,240.079c1.388.227,2.849.043,3.717.673,6.6,4.793,12.887,3.948,18.907-.9a9.374,9.374,0,0,0,3.074-4.251,45.264,45.264,0,0,0,1.167-7.919c.281-2.506,1.707-3.554,4.113-3.511.127,0,.255-.021.382-.016,14.167.6,11.472-1.539,12.687,11.287.248,2.619,1.625,3.7,3.525,5.253,5.522,4.506,10.583,4.131,16.033.111,2.841-2.1,5.141-1.376,6.705,1.96a29.847,29.847,0,0,0,3.6,5.84c1.88,2.369,1.495,4.624-.773,5.857-6.6,3.59-9.081,8.37-8.4,16.236.392,4.512,1.386,7.043,4.864,9.477,7.223,5.054,7.1,4,2.431,11.753-.591.982-1.247,1.932-1.757,2.954-1.252,2.5-3.362,3.663-5.561,1.893-7.352-5.919-13.753-2.433-20.157,1.619a5.88,5.88,0,0,0-1.714,2.281,6.063,6.063,0,0,0-.3,1.873c-2,13.465.426,10.593-14.035,10.639-2.284.007-3.558-1.159-3.541-3.543,0-.38-.059-.761-.092-1.141-.871-10.175-.849-10.218-9.774-14.858a4.8,4.8,0,0,0-3.466-.009c-2.86,1.057-5.53,2.7-8.444,3.5a5.09,5.09,0,0,1-4.328-1.372,30.861,30.861,0,0,1-4.748-7.787c-.509-1.223-.051-3.981.839-4.477,6.771-3.771,9.615-8.823,8.738-16.918-.422-3.9-1.021-6.269-4.188-8.655C9.3,252,9,253.993,14.6,244.714,15.507,243.213,16.536,241.786,17.67,240.079ZM35.3,277.464c5,9.521,15.67,13.039,24.931,8.223a18.676,18.676,0,1,0-17.257-33.121A18.423,18.423,0,0,0,35.3,277.464Z" transform="translate(-3.593 -75.908)"/>
      <path id="Path_83" data-name="Path 83" class="cls-8" d="M532.824,966.871a27.368,27.368,0,0,1,3.489-.927,7.979,7.979,0,0,0,6.311-11.288c-1.549-3.511,1.387-8.03,5.233-7.691,1.022.09,2.075,1.458,2.851,2.445,3.542,4.5,8.453,4.5,11.7-.082a5.643,5.643,0,0,1,9.285-.154c.615.905.245,2.758-.155,4.024-1.887,5.985,1.385,11.375,7.515,12.139,3.307.412,5.723,5.9,3.487,8.421-.788.888-2.591,1.009-3.971,1.215a7.907,7.907,0,0,0-6.161,11.171,5.5,5.5,0,0,1-5.084,7.784c-1-.035-2.144-1.354-2.9-2.33-3.739-4.792-8.96-4.636-12.131.473-1.115,1.8-2.157,3.346-4.739,2.107-4.9-2.35-5.159-2.681-4.038-6.311.48-1.555,1.429-3.431.957-4.716a22.577,22.577,0,0,0-4.17-6.714c-.675-.785-2.472-.685-3.775-.83C532.6,975.171,530.485,970.973,532.824,966.871Zm30.1-5.44a10.757,10.757,0,0,0-14.777,3.707c-2.949,5.069-1.021,12.414,3.976,15.151a11,11,0,0,0,14.736-4.2A10.6,10.6,0,0,0,562.922,961.431Z" transform="translate(-177.283 -316.794)"/>
      <g id="Group_184" data-name="Group 184" transform="translate(-58.812 509.627)">
        <path id="Path_84" data-name="Path 84" class="cls-9" d="M253.173,930.274v13.333c-1.581.872-3.071,2.173-4.762,2.535a137.344,137.344,0,0,1-14.119,2.293c-3.305.353-4.87,1.543-4.716,5.093a29.253,29.253,0,0,1-.984,6.906c-.415,2.043.083,3.183,2.177,4.038,4.822,1.969,9.516,4.251,14.254,6.423,3.924,1.8,4.359,2.761,3.212,7.006-.549,2.034-1.127,4.06-1.671,6.095-1.3,4.839-1.992,5.31-6.99,4.79-5.837-.607-11.677-1.193-17.558-1.792l-5.489,13.153c4.955,4.067,9.8,8.12,14.737,12.063,2.314,1.849,2.745,3.855,1.213,6.375-1.325,2.181-2.568,4.411-3.855,6.615-2.3,3.935-3.032,4.2-7.2,2.645-5.089-1.9-10.157-3.866-15.287-5.651a3.147,3.147,0,0,0-2.778.445c-2.674,3.228-5.131,6.635-7.577,9.869a2.448,2.448,0,0,0,.15.535c3.475,4.883,6.967,9.755,10.43,14.646,2.389,3.375,2.281,4.427-.688,7.442q-2.338,2.374-4.707,4.718c-3.351,3.333-4.179,3.422-7.939.751-5.145-3.655-10.273-7.335-15.472-11.051-2.89,2.377-5.539,4.761-8.409,6.839-1.857,1.345-2.227,2.578-1.339,4.721,2.122,5.119,3.953,10.359,5.954,15.529,1,2.579.475,4.5-2.041,5.861-2.437,1.322-4.852,2.7-7.185,4.194-2.895,1.853-5.039,1.279-7.129-1.407-3.8-4.89-7.83-9.607-11.707-14.327l-13.115,5.517c.646,6.429,1.212,12.613,1.911,18.783.352,3.1-.9,4.827-3.9,5.528-2.7.632-5.374,1.363-8.035,2.14-2.832.827-4.655-.077-5.835-2.808-2.2-5.089-4.647-10.072-6.788-15.185-.763-1.823-1.762-2.224-3.555-1.928-3.173.524-6.407.719-9.544,1.391a3.694,3.694,0,0,0-2.3,2.375c-1.063,5.329-1.718,10.739-2.826,16.057-.353,1.7-1.665,3.191-2.538,4.779H75.84c-.869-1.587-2.161-3.082-2.524-4.777-.975-4.551-1.715-9.169-2.233-13.8-.369-3.283-1.277-5.293-5.164-5.043a27.1,27.1,0,0,1-6.9-.969c-2.042-.413-3.185.077-4.041,2.173-1.967,4.824-4.251,9.519-6.419,14.262-1.8,3.936-2.744,4.369-7,3.219-2.035-.549-4.059-1.137-6.093-1.685-4.837-1.3-5.31-2.012-4.789-6.987.612-5.837,1.186-11.677,1.782-17.574l-13.144-5.44c-4.017,4.881-8.045,9.611-11.877,14.5-2.048,2.61-4.169,2.941-6.9,1.222-2.251-1.419-4.565-2.753-6.921-3.991-2.765-1.454-3.411-3.444-2.255-6.341,2.056-5.149,3.988-10.349,5.84-15.575.3-.848.309-2.409-.21-2.839-3.307-2.735-6.8-5.245-10.277-7.862-5.147,3.68-10.173,7.145-15.049,10.811-2.758,2.073-4.981,1.865-7.242-.665-1.627-1.82-3.441-3.471-5.159-5.211-2.907-2.945-2.983-3.97-.506-7.442,3.539-4.959,7.1-9.9,10.669-14.886l-8.673-11.3c-5.768,2.168-11.364,4.278-16.964,6.375-4.305,1.612-5.038,1.365-7.289-2.454-1.239-2.1-2.37-4.276-3.695-6.324-1.854-2.864-1.385-5.023,1.337-7.134,4.9-3.8,9.613-7.831,14.332-11.706-1.516-3.671-3.051-7-4.255-10.445-.751-2.15-1.7-2.851-4.091-2.5-5.379.787-10.821,1.129-16.231,1.71-2.78.3-4.443-.822-5.121-3.546-.7-2.8-1.433-5.587-2.246-8.353-.831-2.825.046-4.683,2.769-5.868,5.085-2.213,10.082-4.633,15.2-6.776,1.793-.751,2.285-1.711,1.967-3.533a83.8,83.8,0,0,1-1.2-8.906c-.131-1.994-.681-2.885-2.835-3.161-5.391-.691-10.733-1.749-16.108-2.575-3.137-.482-4.753-2-4.507-5.362.177-2.431.027-4.886.036-7.331.015-4.386.739-5.2,4.98-5.884,5.26-.843,10.5-1.849,15.775-2.545,2-.263,2.527-1.081,2.659-2.945a84.536,84.536,0,0,1,1.2-8.906c.351-1.956-.214-2.971-2.107-3.765-5.113-2.146-10.115-4.553-15.182-6.81-2.533-1.128-3.473-2.889-2.671-5.613.783-2.659,1.517-5.338,2.124-8.042.708-3.158,2.484-4.425,5.745-4.021,5.4.669,10.816,1.2,16.239,1.625.985.077,2.639-.348,2.95-1.019,1.795-3.883,3.279-7.909,4.875-11.9l-13.57-11.123c-4.033-3.307-4.153-3.992-1.495-8.63,1.1-1.927,2.292-3.809,3.306-5.781,1.5-2.911,3.538-3.557,6.591-2.307,5.129,2.1,10.345,4,15.575,5.835a3.167,3.167,0,0,0,2.791-.4c2.669-3.241,5.118-6.662,7.731-10.141l-10.3-14.412c-2.928-4.1-2.863-4.819.773-8.453q2-2,4.017-4c3.746-3.718,4.341-3.758,8.723-.611,4.747,3.409,9.495,6.817,14.183,10.183l11.278-8.66c-2.216-5.889-4.315-11.718-6.611-17.469-1.2-3-.659-5.1,2.277-6.619,2.363-1.222,4.672-2.564,6.93-3.973,2.772-1.731,4.857-1.225,6.871,1.357,3.815,4.892,7.835,9.625,11.789,14.449l13.152-5.5c-.639-6.381-1.227-12.669-1.917-18.945-.323-2.945.855-4.631,3.723-5.316,2.7-.645,5.37-1.39,8.032-2.166,2.925-.852,4.871-.025,6.105,2.89,2.162,5.106,4.59,10.1,6.757,15.2a2.6,2.6,0,0,0,3.314,1.809c3.065-.508,6.144-1,9.237-1.238,1.865-.143,2.684-.691,2.95-2.682.72-5.387,1.775-10.729,2.584-16.105.467-3.106,1.863-4.837,5.257-4.638a67.494,67.494,0,0,0,8,0c3.355-.2,4.842,1.412,5.308,4.563.813,5.489,1.679,10.974,2.753,16.415a3.67,3.67,0,0,0,2.352,2.294c3.027.657,6.163.8,9.214,1.369,2.137.4,3.151-.288,3.981-2.292,2.078-5.02,4.457-9.914,6.649-14.888,1.186-2.689,3.042-3.607,5.881-2.735,2.437.747,4.919,1.347,7.384,2,4.218,1.124,4.829,1.939,4.412,6.343-.5,5.307-1.158,10.6-1.561,15.913a3.454,3.454,0,0,0,1.229,2.824c3.788,1.76,7.716,3.221,11.693,4.826,4.091-5,8.125-9.877,12.086-14.807,1.76-2.191,3.719-2.581,6.12-1.15,2,1.193,4.049,2.309,6.064,3.48,4.934,2.869,5.07,3.294,3,8.741-2.034,5.355-4.055,10.715-6.058,16.009l11.307,8.667c5.152-3.687,10.314-7.323,15.409-11.05,2.357-1.725,4.411-1.731,6.467.458,1.747,1.863,3.614,3.613,5.416,5.425,3.117,3.135,3.2,4.093.635,7.693q-5.293,7.432-10.6,14.835c2.456,3.241,4.834,6.173,6.967,9.275,1.158,1.683,2.213,1.974,4.111,1.2,5.129-2.1,10.361-3.956,15.535-5.95,2.577-.993,4.507-.456,5.859,2.064,1.206,2.248,2.546,4.425,3.814,6.64,2.343,4.091,2.2,4.9-1.367,7.832-4.7,3.865-9.389,7.731-14.016,11.541l5.519,13.123c6.009-.619,11.747-1.2,17.482-1.8,4.984-.527,5.758-.014,7.037,4.755.632,2.357,1.251,4.718,1.936,7.059.825,2.821-.079,4.659-2.815,5.838-5.093,2.194-10.081,4.638-15.2,6.775-1.831.765-2.215,1.78-1.923,3.564.519,3.175.721,6.409,1.393,9.546a3.669,3.669,0,0,0,2.371,2.28c5.33,1.061,10.741,1.719,16.06,2.826C250.081,928.094,251.582,929.4,253.173,930.274ZM82.5,978.807c22.92-.049,41.863-18.947,41.879-41.781.016-23.03-19.063-42.081-42.022-41.959a42.086,42.086,0,0,0-41.7,41.939C40.717,959.946,59.647,978.856,82.5,978.807Zm-80.4,46.14,12.544-21.721A96.823,96.823,0,0,1-8.274,964.4c-.229-.743-1.251-1.759-1.918-1.769-7.841-.123-15.684-.079-23.562-.079C-31.836,981.2-14.5,1011.367,2.1,1024.947Zm12.244-154.82L1.971,848.753c-18.551,17.33-30.448,37.866-36.038,62.625,7.894,0,15.2-.083,22.507.051,2.2.041,2.865-.877,3.673-2.791,3.049-7.224,5.955-14.58,9.836-21.359C5.388,881.274,10.05,875.97,14.341,870.127Zm148.687-21.393-12.639,21.9a98.162,98.162,0,0,1,22.987,38.989c.251.813,1.927,1.649,2.964,1.681,5.324.165,10.656.071,15.985.069,2.164,0,4.328,0,6.828,0C193.432,886.552,181.474,866.065,163.029,848.734Zm-.1,176.226c18.775-17.073,30.365-37.715,36.192-62.407-8.257,0-16.1-.045-23.94.08-.66.011-1.669,1.044-1.9,1.791a96.083,96.083,0,0,1-21.631,37.44,2.788,2.788,0,0,0-.559,2.471C154.863,1011.1,158.776,1017.777,162.929,1024.959ZM46.384,1050.767a120.108,120.108,0,0,0,72.247.019c-4.067-7.045-7.953-13.877-12-20.611a3.116,3.116,0,0,0-2.7-.787,98.276,98.276,0,0,1-42.9-.027,3.328,3.328,0,0,0-2.851,1.115C54.238,1037.021,50.473,1043.673,46.384,1050.767Zm0-227.643c4.044,7.009,7.874,13.746,11.857,20.392a3.048,3.048,0,0,0,2.61,1.045,97.056,97.056,0,0,1,43.215.018,2.861,2.861,0,0,0,2.473-.677c4.067-6.805,7.992-13.7,12.075-20.777C94.345,815.721,70.526,815.634,46.385,823.124Z" transform="translate(88.219 -766.226)"/>
      </g>
      <g id="Group_185" data-name="Group 185" transform="translate(-16.985 299.29)">
        <path id="Path_85" data-name="Path 85" class="cls-9" d="M147.451,533.817v6.754a9.8,9.8,0,0,1-2.412,1.284,69.548,69.548,0,0,1-7.151,1.161c-1.675.179-2.467.781-2.389,2.58a14.832,14.832,0,0,1-.5,3.5,1.545,1.545,0,0,0,1.1,2.046c2.443,1,4.82,2.153,7.22,3.253,1.988.911,2.208,1.4,1.627,3.549-.279,1.03-.571,2.057-.847,3.087-.656,2.451-1.009,2.689-3.541,2.426-2.957-.307-5.915-.6-8.894-.908l-2.78,6.663c2.51,2.06,4.965,4.113,7.465,6.111a2.192,2.192,0,0,1,.614,3.229c-.671,1.1-1.3,2.234-1.953,3.351-1.163,1.993-1.536,2.13-3.648,1.34-2.578-.964-5.145-1.958-7.744-2.863a1.591,1.591,0,0,0-1.407.225c-1.355,1.635-2.6,3.361-3.839,5a1.25,1.25,0,0,0,.076.271c1.76,2.473,3.529,4.941,5.283,7.419,1.211,1.71,1.155,2.242-.349,3.769q-1.184,1.2-2.384,2.39c-1.7,1.689-2.117,1.733-4.021.381-2.607-1.852-5.2-3.716-7.837-5.6-1.464,1.2-2.806,2.411-4.259,3.464a1.694,1.694,0,0,0-.679,2.391c1.075,2.593,2,5.247,3.016,7.865a2.1,2.1,0,0,1-1.034,2.969c-1.234.67-2.457,1.367-3.639,2.124-1.467.939-2.553.649-3.611-.713-1.927-2.477-3.966-4.866-5.93-7.257l-6.643,2.795c.327,3.256.614,6.389.968,9.514a2.267,2.267,0,0,1-1.974,2.8c-1.367.321-2.723.691-4.07,1.084a2.178,2.178,0,0,1-2.956-1.422c-1.114-2.578-2.353-5.1-3.438-7.692a1.4,1.4,0,0,0-1.8-.976c-1.607.265-3.246.364-4.835.7a1.871,1.871,0,0,0-1.166,1.2c-.538,2.7-.87,5.44-1.431,8.133a9.73,9.73,0,0,1-1.285,2.421H57.625a9.953,9.953,0,0,1-1.279-2.419c-.494-2.305-.869-4.645-1.131-6.988-.187-1.663-.647-2.682-2.616-2.555a13.716,13.716,0,0,1-3.5-.491,1.545,1.545,0,0,0-2.047,1.1c-1,2.443-2.153,4.822-3.251,7.224-.911,1.994-1.391,2.213-3.548,1.631-1.031-.278-2.056-.576-3.087-.853-2.45-.661-2.689-1.019-2.425-3.539.309-2.957.6-5.915.9-8.9L28.988,605.1c-2.035,2.473-4.075,4.869-6.017,7.343a2.306,2.306,0,0,1-3.494.619q-1.711-1.078-3.505-2.021a2.228,2.228,0,0,1-1.143-3.213c1.041-2.608,2.021-5.242,2.959-7.889.152-.429.157-1.22-.107-1.438-1.675-1.385-3.445-2.657-5.205-3.983-2.607,1.865-5.153,3.62-7.623,5.477a2.368,2.368,0,0,1-3.668-.337c-.824-.921-1.743-1.758-2.613-2.639-1.472-1.491-1.511-2.011-.256-3.769,1.792-2.512,3.595-5.016,5.4-7.54l-4.394-5.725c-2.921,1.1-5.756,2.167-8.593,3.229-2.181.817-2.552.692-3.692-1.243-.628-1.065-1.2-2.166-1.872-3.2-.939-1.451-.7-2.545.678-3.614,2.481-1.924,4.869-3.967,7.26-5.929-.769-1.86-1.546-3.547-2.156-5.291a1.582,1.582,0,0,0-2.072-1.267c-2.725.4-5.481.573-8.222.867a2.128,2.128,0,0,1-2.593-1.8c-.353-1.417-.726-2.831-1.138-4.231a2.188,2.188,0,0,1,1.4-2.973c2.576-1.121,5.107-2.347,7.7-3.432a1.391,1.391,0,0,0,1-1.789,42.5,42.5,0,0,1-.609-4.511c-.067-1.01-.345-1.461-1.436-1.6-2.731-.35-5.437-.886-8.159-1.3-1.589-.244-2.407-1.013-2.283-2.716.09-1.231.014-2.475.018-3.713.008-2.221.375-2.636,2.523-2.981,2.664-.427,5.317-.937,7.991-1.289,1.013-.133,1.279-.547,1.347-1.492a42.749,42.749,0,0,1,.607-4.511,1.485,1.485,0,0,0-1.067-1.908c-2.59-1.087-5.124-2.306-7.69-3.449a2.115,2.115,0,0,1-1.353-2.843c.4-1.347.769-2.7,1.075-4.074a2.312,2.312,0,0,1,2.911-2.037c2.734.339,5.479.608,8.225.823.5.039,1.337-.177,1.495-.517.909-1.967,1.661-4.007,2.469-6.029l-6.873-5.635c-2.043-1.675-2.1-2.022-.757-4.371.559-.976,1.161-1.929,1.675-2.929.758-1.475,1.792-1.8,3.339-1.168,2.6,1.064,5.24,2.025,7.889,2.955a1.605,1.605,0,0,0,1.414-.2c1.352-1.641,2.593-3.375,3.916-5.137l-5.218-7.3c-1.483-2.075-1.45-2.441.391-4.282q1.015-1.015,2.035-2.025c1.9-1.883,2.2-1.9,4.419-.309l7.184,5.158,5.713-4.387c-1.122-2.983-2.185-5.936-3.349-8.849-.607-1.521-.334-2.583,1.153-3.353,1.2-.619,2.367-1.3,3.511-2.013,1.4-.877,2.46-.621,3.48.687,1.933,2.478,3.969,4.875,5.972,7.319l6.662-2.784c-.324-3.233-.622-6.417-.971-9.6a2.19,2.19,0,0,1,1.886-2.693c1.366-.327,2.72-.7,4.069-1.1a2.258,2.258,0,0,1,3.093,1.464c1.1,2.587,2.325,5.116,3.423,7.7a1.319,1.319,0,0,0,1.679.916c1.553-.257,3.112-.507,4.679-.627.945-.072,1.359-.35,1.494-1.359.365-2.729.9-5.435,1.309-8.158.237-1.573.944-2.45,2.663-2.349a34.052,34.052,0,0,0,4.05,0c1.7-.1,2.453.716,2.689,2.312.411,2.78.85,5.559,1.395,8.315a1.857,1.857,0,0,0,1.191,1.162c1.533.333,3.121.405,4.667.694a1.563,1.563,0,0,0,2.016-1.161c1.053-2.543,2.258-5.022,3.369-7.541a2.182,2.182,0,0,1,2.979-1.386c1.235.379,2.492.683,3.741,1.015,2.136.569,2.445.983,2.235,3.213-.254,2.688-.587,5.369-.791,8.06a1.75,1.75,0,0,0,.623,1.431c1.919.891,3.909,1.632,5.923,2.445,2.073-2.535,4.116-5,6.123-7.5a2.129,2.129,0,0,1,3.1-.583c1.014.6,2.051,1.169,3.072,1.763,2.5,1.453,2.568,1.668,1.52,4.427-1.03,2.713-2.054,5.427-3.069,8.109l5.728,4.39c2.609-1.867,5.224-3.709,7.805-5.6a2.18,2.18,0,0,1,3.275.232c.885.943,1.831,1.83,2.743,2.748,1.579,1.588,1.621,2.073.322,3.9q-2.681,3.764-5.371,7.515c1.244,1.641,2.449,3.127,3.529,4.7a1.448,1.448,0,0,0,2.083.606c2.6-1.066,5.247-2,7.869-3.014a2.1,2.1,0,0,1,2.968,1.045c.611,1.139,1.289,2.241,1.932,3.363,1.187,2.073,1.113,2.481-.693,3.967l-7.1,5.846,2.8,6.648c3.045-.313,5.951-.606,8.856-.913,2.524-.267,2.917-.007,3.564,2.408.32,1.194.633,2.39.981,3.576a2.181,2.181,0,0,1-1.426,2.957c-2.58,1.111-5.107,2.349-7.7,3.431a1.4,1.4,0,0,0-.974,1.805c.263,1.608.365,3.247.705,4.835a1.862,1.862,0,0,0,1.2,1.155c2.7.537,5.441.87,8.135,1.431A9.786,9.786,0,0,1,147.451,533.817ZM61,558.4a21.209,21.209,0,1,0-21.2-21.174A21.358,21.358,0,0,0,61,558.4ZM20.271,581.773c2.154-3.729,4.249-7.356,6.354-11A49.047,49.047,0,0,1,15.018,551.1c-.115-.376-.633-.891-.971-.9-3.971-.063-7.945-.04-11.935-.04C3.083,559.614,11.862,574.894,20.271,581.773Zm6.2-78.423-6.265-10.827A60.418,60.418,0,0,0,1.953,524.245c4,0,7.7-.042,11.4.025,1.115.021,1.451-.444,1.86-1.413A99.181,99.181,0,0,1,20.2,512.039C21.938,509,24.3,506.31,26.473,503.35Zm75.317-10.837-6.4,11.091a49.718,49.718,0,0,1,11.644,19.749,1.932,1.932,0,0,0,1.5.851c2.7.084,5.4.036,8.1.035h3.459A61.208,61.208,0,0,0,101.79,492.513Zm-.051,89.266a59.926,59.926,0,0,0,18.333-31.612c-4.183,0-8.155-.023-12.127.041-.335.005-.845.529-.962.907A48.655,48.655,0,0,1,96.026,570.08a1.413,1.413,0,0,0-.283,1.252C97.653,574.756,99.635,578.141,101.739,581.779ZM42.7,594.851a60.841,60.841,0,0,0,36.6.01c-2.061-3.569-4.028-7.029-6.079-10.441a1.578,1.578,0,0,0-1.365-.4,49.785,49.785,0,0,1-21.732-.014,1.685,1.685,0,0,0-1.444.565C46.683,587.889,44.776,591.259,42.7,594.851Zm0-115.311c2.049,3.551,3.988,6.963,6.006,10.329a1.542,1.542,0,0,0,1.322.529,49.166,49.166,0,0,1,21.89.009,1.451,1.451,0,0,0,1.253-.343c2.06-3.448,4.048-6.938,6.117-10.525A60.572,60.572,0,0,0,42.7,479.541Z" transform="translate(25.477 -450.72)"/>
      </g>
      <g id="Group_186" data-name="Group 186" transform="translate(999.913 600.111)">
        <path id="Path_86" data-name="Path 86" class="cls-5" d="M1711.545,1003.667v8.267a12.027,12.027,0,0,1-2.952,1.572,85.271,85.271,0,0,1-8.755,1.421c-2.049.219-3.019.957-2.924,3.158a18.113,18.113,0,0,1-.61,4.282,1.891,1.891,0,0,0,1.35,2.5c2.99,1.221,5.9,2.636,8.838,3.983,2.433,1.115,2.7,1.712,1.991,4.344-.341,1.261-.7,2.517-1.036,3.779-.8,3-1.235,3.293-4.334,2.97-3.619-.376-7.24-.739-10.887-1.111l-3.4,8.155c3.072,2.522,6.078,5.035,9.138,7.48a2.684,2.684,0,0,1,.752,3.953c-.822,1.352-1.593,2.735-2.39,4.1-1.424,2.44-1.88,2.607-4.466,1.641-3.155-1.18-6.3-2.4-9.479-3.5a1.948,1.948,0,0,0-1.722.277c-1.658,2-3.182,4.114-4.7,6.119a1.544,1.544,0,0,0,.093.331c2.155,3.028,4.32,6.049,6.467,9.081,1.482,2.093,1.415,2.745-.427,4.614q-1.449,1.472-2.918,2.926c-2.077,2.066-2.591,2.121-4.922.465-3.19-2.267-6.369-4.549-9.593-6.853-1.792,1.473-3.434,2.952-5.214,4.241a2.072,2.072,0,0,0-.83,2.927c1.315,3.174,2.451,6.423,3.691,9.629a2.573,2.573,0,0,1-1.265,3.634c-1.511.82-3.008,1.673-4.455,2.6-1.795,1.149-3.124.793-4.42-.873-2.359-3.031-4.855-5.956-7.259-8.883l-8.131,3.421c.4,3.985.751,7.82,1.185,11.645a2.775,2.775,0,0,1-2.416,3.428c-1.673.392-3.332.845-4.981,1.327a2.666,2.666,0,0,1-3.619-1.741c-1.364-3.155-2.881-6.245-4.209-9.415a1.71,1.71,0,0,0-2.2-1.2c-1.968.325-3.973.446-5.918.863a2.289,2.289,0,0,0-1.427,1.473c-.659,3.3-1.066,6.659-1.753,9.955a11.92,11.92,0,0,1-1.573,2.963h-8.267a12.167,12.167,0,0,1-1.565-2.962c-.6-2.822-1.063-5.685-1.385-8.554-.228-2.036-.792-3.282-3.2-3.127a16.8,16.8,0,0,1-4.281-.6,1.89,1.89,0,0,0-2.505,1.347c-1.221,2.991-2.636,5.9-3.98,8.843-1.116,2.441-1.7,2.709-4.343,2-1.262-.341-2.517-.705-3.778-1.045-3-.808-3.293-1.247-2.969-4.332.379-3.619.735-7.241,1.1-10.9l-8.15-3.373c-2.491,3.027-4.988,5.96-7.364,8.988-1.27,1.619-2.585,1.824-4.277.758q-2.094-1.32-4.291-2.475c-1.714-.9-2.115-2.136-1.4-3.932,1.275-3.193,2.473-6.417,3.621-9.657.187-.526.192-1.493-.13-1.76-2.051-1.7-4.217-3.252-6.372-4.875-3.191,2.282-6.307,4.431-9.331,6.7-1.71,1.285-3.088,1.156-4.49-.413-1.009-1.128-2.134-2.152-3.2-3.231-1.8-1.826-1.849-2.461-.313-4.614,2.194-3.075,4.4-6.141,6.615-9.23l-5.378-7.008c-3.577,1.344-7.046,2.653-10.519,3.953-2.669,1-3.123.846-4.519-1.522-.769-1.3-1.47-2.651-2.291-3.921-1.149-1.776-.858-3.115.829-4.424,3.037-2.355,5.961-4.855,8.887-7.258-.94-2.276-1.892-4.341-2.638-6.477a1.938,1.938,0,0,0-2.537-1.55c-3.335.488-6.709.7-10.063,1.061a2.606,2.606,0,0,1-3.175-2.2c-.431-1.735-.889-3.464-1.393-5.179a2.679,2.679,0,0,1,1.717-3.639c3.153-1.372,6.251-2.873,9.422-4.2a1.7,1.7,0,0,0,1.22-2.19,51.888,51.888,0,0,1-.746-5.522c-.081-1.237-.422-1.789-1.758-1.96-3.343-.428-6.655-1.084-9.988-1.6-1.944-.3-2.946-1.241-2.795-3.325.11-1.507.017-3.03.023-4.545.01-2.719.458-3.227,3.088-3.649,3.261-.523,6.508-1.147,9.781-1.578,1.239-.163,1.567-.67,1.649-1.827a52.333,52.333,0,0,1,.743-5.521,1.818,1.818,0,0,0-1.307-2.335c-3.17-1.33-6.272-2.823-9.413-4.222a2.59,2.59,0,0,1-1.657-3.48c.485-1.649.941-3.31,1.317-4.986.439-1.959,1.541-2.744,3.563-2.493,3.347.415,6.707.744,10.069,1.007.611.048,1.637-.216,1.829-.632,1.113-2.408,2.033-4.9,3.023-7.381l-8.413-6.9c-2.5-2.05-2.575-2.475-.927-5.351.685-1.195,1.421-2.362,2.05-3.585.927-1.8,2.194-2.205,4.087-1.43,3.18,1.3,6.414,2.48,9.657,3.618a1.963,1.963,0,0,0,1.731-.251c1.655-2.009,3.173-4.131,4.793-6.288l-6.387-8.936c-1.815-2.54-1.775-2.989.479-5.241q1.242-1.242,2.491-2.479c2.323-2.305,2.691-2.33,5.409-.379l8.793,6.313,6.993-5.369c-1.374-3.651-2.676-7.266-4.1-10.831-.744-1.863-.409-3.163,1.412-4.1,1.465-.758,2.9-1.59,4.3-2.464,1.719-1.073,3.011-.759,4.26.841,2.366,3.033,4.858,5.968,7.31,8.959l8.155-3.407c-.4-3.957-.761-7.855-1.189-11.747a2.681,2.681,0,0,1,2.309-3.3c1.671-.4,3.329-.862,4.98-1.343a2.763,2.763,0,0,1,3.785,1.791c1.341,3.166,2.846,6.263,4.19,9.427a1.614,1.614,0,0,0,2.055,1.121c1.9-.315,3.809-.621,5.727-.767,1.157-.089,1.665-.429,1.829-1.663.447-3.341,1.1-6.653,1.6-9.987.289-1.925,1.155-3,3.259-2.875a41.833,41.833,0,0,0,4.958,0c2.081-.126,3,.876,3.291,2.829.5,3.4,1.041,6.8,1.707,10.179a2.274,2.274,0,0,0,1.458,1.422c1.877.407,3.821.5,5.713.849a1.912,1.912,0,0,0,2.468-1.421c1.289-3.113,2.764-6.147,4.123-9.231a2.67,2.67,0,0,1,3.646-1.7c1.511.463,3.051.835,4.579,1.243,2.615.7,2.993,1.2,2.735,3.933-.311,3.291-.718,6.572-.968,9.867a2.143,2.143,0,0,0,.762,1.751c2.349,1.091,4.784,2,7.251,2.992,2.537-3.1,5.037-6.123,7.494-9.181a2.606,2.606,0,0,1,3.794-.713c1.241.739,2.511,1.431,3.76,2.157,3.059,1.779,3.144,2.043,1.861,5.42-1.261,3.32-2.515,6.643-3.757,9.926l7.011,5.373c3.195-2.285,6.395-4.54,9.554-6.851,1.462-1.069,2.735-1.073,4.009.285,1.084,1.155,2.241,2.24,3.359,3.363,1.932,1.944,1.984,2.538.394,4.77q-3.282,4.608-6.574,9.2c1.523,2.009,3,3.828,4.32,5.751a1.773,1.773,0,0,0,2.549.741c3.18-1.305,6.423-2.453,9.632-3.689a2.575,2.575,0,0,1,3.633,1.279c.748,1.394,1.579,2.744,2.365,4.117,1.452,2.537,1.363,3.036-.848,4.856l-8.691,7.156c1.2,2.845,2.306,5.485,3.422,8.137,3.726-.384,7.284-.742,10.839-1.118,3.091-.327,3.57-.009,4.363,2.947.392,1.461.776,2.926,1.2,4.377a2.67,2.67,0,0,1-1.746,3.62c-3.158,1.361-6.25,2.875-9.422,4.2a1.714,1.714,0,0,0-1.192,2.21c.321,1.968.447,3.973.863,5.919a2.276,2.276,0,0,0,1.47,1.413c3.3.658,6.66,1.065,9.958,1.752A12.01,12.01,0,0,1,1711.545,1003.667Zm-105.825,30.092a25.961,25.961,0,1,0-25.946-25.918A26.142,26.142,0,0,0,1605.72,1033.759Zm-49.851,28.609c2.636-4.565,5.2-9,7.778-13.467a60.034,60.034,0,0,1-14.208-24.074c-.142-.461-.776-1.091-1.189-1.1-4.861-.077-9.725-.049-14.609-.049C1534.829,1035.245,1545.575,1053.948,1555.869,1062.368Zm7.592-95.993-7.67-13.253a73.965,73.965,0,0,0-22.345,38.83c4.895,0,9.426-.052,13.955.031,1.365.025,1.776-.544,2.277-1.731a121.411,121.411,0,0,1,6.1-13.243C1557.909,973.286,1560.8,970,1563.461,966.375Zm92.191-13.265-7.837,13.576a60.86,60.86,0,0,1,14.253,24.175c.155.5,1.195,1.022,1.838,1.042,3.3.1,6.607.045,9.911.043h4.234A74.923,74.923,0,0,0,1655.652,953.109Zm-.062,109.267c11.641-10.586,18.827-23.385,22.44-38.695-5.119,0-9.982-.028-14.843.049-.409.007-1.035.647-1.177,1.111a59.574,59.574,0,0,1-13.413,23.214,1.732,1.732,0,0,0-.347,1.533C1650.589,1053.779,1653.015,1057.923,1655.59,1062.376Zm-72.262,16a74.467,74.467,0,0,0,44.8.012c-2.522-4.369-4.931-8.6-7.441-12.78a1.932,1.932,0,0,0-1.671-.488,60.938,60.938,0,0,1-26.6-.017,2.062,2.062,0,0,0-1.768.691C1588.2,1069.854,1585.863,1073.979,1583.328,1078.377Zm0-141.147c2.507,4.346,4.882,8.524,7.351,12.644a1.889,1.889,0,0,0,1.618.648,60.178,60.178,0,0,1,26.795.011,1.772,1.772,0,0,0,1.533-.419c2.522-4.22,4.956-8.493,7.487-12.883A74.143,74.143,0,0,0,1583.329,937.23Z" transform="translate(-1499.87 -901.952)"/>
      </g>
      <g id="Group_187" data-name="Group 187" transform="translate(9.1 385.751)">
        <path id="Path_87" data-name="Path 87" class="cls-10" d="M355.042,744.46v13.333c-1.581.873-3.071,2.174-4.762,2.535a137.4,137.4,0,0,1-14.119,2.292c-3.305.353-4.87,1.543-4.717,5.094a29.22,29.22,0,0,1-.984,6.905c-.415,2.044.084,3.183,2.178,4.039,4.821,1.969,9.515,4.251,14.253,6.423,3.924,1.8,4.359,2.761,3.212,7.006-.549,2.033-1.127,4.06-1.671,6.095-1.295,4.838-1.991,5.31-6.989,4.79-5.837-.607-11.677-1.193-17.558-1.792L318.4,814.333c4.955,4.067,9.8,8.12,14.738,12.063,2.314,1.849,2.744,3.855,1.213,6.375-1.325,2.18-2.569,4.41-3.855,6.615-2.3,3.935-3.033,4.2-7.2,2.645-5.089-1.9-10.157-3.866-15.287-5.651a3.143,3.143,0,0,0-2.778.445c-2.674,3.228-5.131,6.635-7.577,9.869a2.4,2.4,0,0,0,.149.535c3.475,4.883,6.967,9.755,10.43,14.647,2.39,3.375,2.281,4.426-.688,7.441q-2.337,2.375-4.707,4.719c-3.35,3.333-4.178,3.422-7.938.751-5.145-3.656-10.273-7.336-15.472-11.051-2.89,2.376-5.539,4.761-8.409,6.839-1.857,1.345-2.228,2.578-1.34,4.721,2.122,5.119,3.953,10.358,5.955,15.529,1,2.579.475,4.5-2.041,5.861-2.437,1.322-4.852,2.7-7.186,4.193-2.895,1.854-5.039,1.28-7.129-1.407-3.8-4.889-7.83-9.606-11.707-14.326l-13.115,5.517c.646,6.428,1.211,12.613,1.911,18.783.351,3.1-.9,4.826-3.9,5.528-2.7.632-5.375,1.363-8.035,2.139-2.833.827-4.655-.076-5.836-2.807-2.2-5.089-4.647-10.073-6.787-15.185-.763-1.823-1.763-2.224-3.555-1.928-3.173.524-6.408.719-9.544,1.391a3.69,3.69,0,0,0-2.3,2.375c-1.063,5.328-1.719,10.739-2.827,16.057-.353,1.7-1.665,3.191-2.537,4.778H177.709c-.869-1.586-2.161-3.082-2.524-4.777-.975-4.551-1.715-9.169-2.234-13.8-.368-3.284-1.277-5.294-5.164-5.044a27.1,27.1,0,0,1-6.9-.969c-2.043-.413-3.186.077-4.041,2.174-1.968,4.824-4.251,9.519-6.419,14.261-1.8,3.937-2.745,4.369-7,3.22-2.035-.549-4.059-1.137-6.093-1.685-4.837-1.3-5.31-2.013-4.789-6.987.611-5.837,1.185-11.678,1.782-17.575l-13.145-5.44c-4.017,4.881-8.045,9.612-11.877,14.5-2.048,2.61-4.169,2.942-6.9,1.222-2.252-1.419-4.565-2.752-6.921-3.991-2.765-1.454-3.412-3.445-2.255-6.341,2.056-5.149,3.989-10.35,5.84-15.576.3-.848.31-2.409-.209-2.838-3.307-2.735-6.8-5.245-10.277-7.863-5.147,3.681-10.173,7.146-15.05,10.811-2.757,2.073-4.98,1.865-7.242-.665-1.627-1.819-3.441-3.471-5.158-5.21-2.907-2.945-2.983-3.971-.506-7.442,3.538-4.959,7.1-9.9,10.669-14.886l-8.674-11.3c-5.768,2.168-11.363,4.278-16.964,6.375-4.3,1.612-5.037,1.365-7.289-2.455-1.239-2.1-2.37-4.276-3.695-6.323-1.853-2.864-1.384-5.023,1.338-7.135,4.9-3.8,9.613-7.831,14.332-11.705-1.516-3.672-3.051-7-4.255-10.446-.751-2.149-1.7-2.85-4.091-2.5-5.378.787-10.821,1.129-16.231,1.711-2.78.3-4.444-.823-5.121-3.546-.7-2.8-1.433-5.587-2.247-8.353-.83-2.825.047-4.683,2.769-5.868,5.086-2.213,10.083-4.634,15.2-6.776,1.794-.751,2.286-1.711,1.967-3.533a83.8,83.8,0,0,1-1.2-8.906c-.131-1.994-.681-2.885-2.835-3.161-5.391-.691-10.733-1.749-16.109-2.575-3.136-.482-4.752-2-4.507-5.362.177-2.431.027-4.886.036-7.331.016-4.386.739-5.2,4.981-5.884,5.259-.843,10.5-1.85,15.775-2.545,2-.264,2.527-1.081,2.659-2.946a84.521,84.521,0,0,1,1.2-8.905c.351-1.956-.215-2.971-2.107-3.766C31.1,721.511,26.1,719.1,21.033,716.847c-2.533-1.128-3.473-2.89-2.671-5.613.782-2.659,1.517-5.338,2.123-8.042.709-3.158,2.484-4.425,5.746-4.021,5.4.669,10.816,1.2,16.239,1.625.985.077,2.639-.348,2.949-1.02,1.795-3.883,3.279-7.909,4.875-11.9L36.725,676.749c-4.033-3.306-4.153-3.991-1.495-8.63,1.1-1.926,2.292-3.809,3.305-5.781,1.5-2.911,3.539-3.557,6.591-2.307,5.129,2.1,10.344,4,15.575,5.835a3.166,3.166,0,0,0,2.791-.4c2.669-3.241,5.119-6.662,7.731-10.141l-10.3-14.412c-2.927-4.1-2.863-4.82.773-8.453q2-2,4.017-4c3.746-3.718,4.341-3.758,8.724-.611,4.747,3.409,9.495,6.817,14.182,10.183L99.9,629.37c-2.216-5.889-4.315-11.719-6.612-17.469-1.2-3-.659-5.1,2.277-6.619,2.364-1.222,4.673-2.564,6.931-3.974,2.771-1.73,4.857-1.225,6.871,1.357,3.815,4.892,7.835,9.625,11.789,14.449l13.152-5.5c-.64-6.381-1.228-12.669-1.917-18.945-.324-2.945.855-4.631,3.723-5.317,2.7-.644,5.369-1.39,8.031-2.165,2.925-.852,4.871-.025,6.105,2.889,2.163,5.107,4.59,10.1,6.758,15.2a2.6,2.6,0,0,0,3.314,1.808c3.065-.508,6.143-1,9.237-1.237,1.865-.143,2.685-.691,2.951-2.682.72-5.387,1.775-10.729,2.583-16.106.467-3.105,1.863-4.837,5.257-4.637a67.351,67.351,0,0,0,8,0c3.356-.2,4.843,1.413,5.309,4.563.812,5.489,1.678,10.975,2.753,16.416a3.672,3.672,0,0,0,2.353,2.294c3.027.657,6.163.8,9.214,1.369,2.137.4,3.151-.289,3.981-2.292,2.077-5.02,4.457-9.915,6.649-14.888,1.185-2.69,3.041-3.607,5.881-2.736,2.437.748,4.92,1.347,7.385,2,4.218,1.124,4.828,1.939,4.411,6.343-.5,5.306-1.157,10.6-1.561,15.913a3.456,3.456,0,0,0,1.229,2.823c3.789,1.761,7.716,3.221,11.694,4.826,4.091-5,8.125-9.877,12.086-14.807,1.76-2.19,3.718-2.58,6.12-1.149,2,1.193,4.049,2.308,6.063,3.48,4.935,2.869,5.071,3.294,3,8.741-2.034,5.355-4.055,10.715-6.058,16.009l11.307,8.667c5.153-3.687,10.315-7.323,15.409-11.051,2.357-1.725,4.412-1.731,6.467.459,1.748,1.863,3.615,3.613,5.416,5.425,3.117,3.135,3.2,4.093.636,7.693q-5.293,7.431-10.6,14.835c2.456,3.24,4.833,6.173,6.967,9.274,1.158,1.683,2.213,1.975,4.111,1.2,5.129-2.1,10.36-3.957,15.535-5.951,2.578-.993,4.507-.456,5.859,2.064,1.206,2.249,2.546,4.425,3.815,6.641,2.343,4.091,2.2,4.9-1.368,7.831l-14.016,11.542c1.93,4.588,3.72,8.845,5.519,13.123,6.01-.619,11.748-1.2,17.483-1.8,4.984-.527,5.758-.014,7.036,4.754.632,2.357,1.251,4.719,1.936,7.06.825,2.821-.079,4.659-2.815,5.838-5.093,2.194-10.08,4.638-15.2,6.775-1.831.765-2.214,1.78-1.923,3.564.519,3.175.721,6.409,1.393,9.546a3.674,3.674,0,0,0,2.371,2.28c5.33,1.061,10.741,1.719,16.061,2.825C351.949,742.281,353.45,743.589,355.042,744.46ZM184.365,792.994c22.921-.049,41.863-18.947,41.879-41.781.016-23.031-19.063-42.081-42.021-41.96a41.871,41.871,0,0,0,.143,83.741Zm-80.4,46.14,12.544-21.721a96.824,96.824,0,0,1-22.915-38.826c-.229-.743-1.251-1.759-1.918-1.769-7.841-.124-15.684-.079-23.562-.079C70.033,795.388,87.364,825.554,103.965,839.134Zm12.244-154.82L103.84,662.94C85.289,680.269,73.391,700.806,67.8,725.564c7.893,0,15.2-.083,22.507.051,2.2.041,2.865-.877,3.673-2.791,3.049-7.224,5.955-14.58,9.837-21.359C107.256,695.46,111.919,690.157,116.209,684.313ZM264.9,662.919l-12.639,21.9A98.146,98.146,0,0,1,275.245,723.8c.251.813,1.927,1.648,2.964,1.681,5.324.165,10.656.071,15.985.069,2.164,0,4.328,0,6.829,0C295.3,700.738,283.342,680.252,264.9,662.919Zm-.1,176.227c18.775-17.073,30.364-37.715,36.191-62.407-8.257,0-16.1-.045-23.94.08-.66.011-1.668,1.043-1.9,1.791a96.07,96.07,0,0,1-21.631,37.441,2.79,2.79,0,0,0-.559,2.471C256.731,825.281,260.644,831.964,264.8,839.146ZM148.252,864.953a120.109,120.109,0,0,0,72.247.02c-4.067-7.046-7.952-13.878-12-20.611a3.118,3.118,0,0,0-2.7-.788,98.275,98.275,0,0,1-42.9-.027,3.324,3.324,0,0,0-2.851,1.115C156.107,851.208,152.341,857.86,148.252,864.953Zm0-227.643c4.044,7.009,7.873,13.747,11.857,20.393a3.046,3.046,0,0,0,2.609,1.045,97.06,97.06,0,0,1,43.215.017,2.859,2.859,0,0,0,2.473-.677c4.067-6.806,7.993-13.7,12.076-20.778C196.214,629.908,172.394,629.821,148.254,637.31Z" transform="translate(-13.65 -580.412)"/>
      </g>
      <g id="Group_188" data-name="Group 188" transform="translate(1035.745 102.959)">
        <path id="Path_88" data-name="Path 88" class="cls-11" d="M1945.622,344.593V359.9c-1.815,1-3.526,2.5-5.467,2.911a157.975,157.975,0,0,1-16.212,2.632c-3.8.4-5.592,1.771-5.416,5.849a33.552,33.552,0,0,1-1.129,7.929c-.477,2.347.1,3.655,2.5,4.637,5.537,2.261,10.927,4.882,16.367,7.375,4.506,2.065,5,3.17,3.688,8.045-.631,2.335-1.294,4.662-1.919,7-1.487,5.556-2.287,6.1-8.026,5.5-6.7-.7-13.408-1.37-20.161-2.058-2.136,5.117-4.181,10.018-6.3,15.1,5.69,4.67,11.256,9.324,16.923,13.851,2.657,2.123,3.151,4.427,1.392,7.321-1.521,2.5-2.949,5.064-4.426,7.595-2.637,4.519-3.482,4.829-8.27,3.038-5.844-2.185-11.663-4.439-17.554-6.489-.926-.323-2.659-.13-3.189.511-3.071,3.707-5.893,7.619-8.7,11.333a2.814,2.814,0,0,0,.171.614c3.991,5.607,8,11.2,11.977,16.818,2.744,3.876,2.619,5.083-.79,8.545q-2.684,2.726-5.4,5.418c-3.847,3.827-4.8,3.929-9.115.861-5.908-4.2-11.8-8.423-17.766-12.689-3.319,2.728-6.36,5.466-9.655,7.853-2.133,1.544-2.558,2.96-1.538,5.421,2.436,5.878,4.539,11.893,6.837,17.831,1.146,2.961.545,5.163-2.343,6.73-2.8,1.518-5.571,3.1-8.251,4.815-3.324,2.129-5.786,1.469-8.186-1.616-4.368-5.614-8.991-11.03-13.443-16.45l-15.059,6.335c.741,7.381,1.391,14.483,2.194,21.567.4,3.562-1.037,5.542-4.475,6.347-3.1.726-6.171,1.565-9.226,2.457-3.252.95-5.345-.087-6.7-3.223-2.526-5.843-5.335-11.566-7.794-17.436-.876-2.093-2.023-2.554-4.082-2.214-3.644.6-7.358.826-10.959,1.6a4.237,4.237,0,0,0-2.643,2.727c-1.22,6.119-1.973,12.331-3.245,18.437-.405,1.947-1.911,3.665-2.914,5.487H1742c-1-1.821-2.481-3.539-2.9-5.485-1.12-5.226-1.969-10.529-2.565-15.841-.423-3.771-1.467-6.079-5.929-5.792-2.611.168-5.308-.582-7.928-1.112-2.345-.474-3.658.088-4.64,2.5-2.26,5.539-4.882,10.931-7.371,16.376-2.066,4.52-3.151,5.017-8.042,3.7-2.336-.631-4.66-1.306-7-1.935-5.555-1.5-6.1-2.311-5.5-8.023.7-6.7,1.362-13.409,2.047-20.18l-15.094-6.247c-4.613,5.6-9.237,11.037-13.638,16.645-2.352,3-4.787,3.378-7.921,1.4-2.585-1.629-5.241-3.16-7.947-4.583-3.175-1.67-3.917-3.955-2.589-7.282,2.361-5.912,4.58-11.884,6.706-17.885.344-.973.355-2.766-.241-3.259-3.8-3.14-7.809-6.023-11.8-9.028-5.91,4.226-11.682,8.205-17.281,12.414-3.167,2.381-5.719,2.142-8.315-.763-1.868-2.089-3.951-3.985-5.923-5.983-3.337-3.381-3.425-4.559-.581-8.545,4.063-5.694,8.148-11.371,12.25-17.093l-9.959-12.979c-6.623,2.489-13.049,4.912-19.479,7.32-4.943,1.851-5.785,1.567-8.369-2.819-1.423-2.415-2.722-4.91-4.243-7.261-2.128-3.289-1.589-5.768,1.537-8.193,5.623-4.361,11.039-8.992,16.457-13.441-1.741-4.216-3.5-8.039-4.886-11.994-.862-2.468-1.95-3.273-4.7-2.871-6.175.9-12.425,1.3-18.637,1.964-3.192.343-5.1-.944-5.88-4.072-.8-3.213-1.645-6.415-2.579-9.591-.954-3.244.053-5.378,3.179-6.738,5.84-2.541,11.577-5.321,17.45-7.781,2.059-.863,2.625-1.965,2.258-4.057a96.349,96.349,0,0,1-1.381-10.226c-.151-2.29-.781-3.313-3.255-3.63-6.19-.793-12.325-2.007-18.5-2.956-3.6-.553-5.457-2.3-5.175-6.157.2-2.792.031-5.611.041-8.417.018-5.037.848-5.975,5.719-6.757,6.039-.969,12.053-2.124,18.113-2.923,2.3-.3,2.9-1.241,3.054-3.383a96.765,96.765,0,0,1,1.375-10.226c.4-2.246-.247-3.411-2.42-4.324-5.871-2.464-11.615-5.228-17.433-7.819-2.909-1.3-3.988-3.319-3.067-6.445.9-3.053,1.742-6.129,2.438-9.234.813-3.626,2.853-5.081,6.6-4.617,6.2.768,12.42,1.378,18.647,1.866,1.131.089,3.031-.4,3.387-1.171,2.061-4.459,3.765-9.082,5.6-13.669l-15.582-12.773c-4.631-3.8-4.769-4.583-1.716-9.909,1.267-2.212,2.631-4.374,3.8-6.639,1.718-3.342,4.063-4.084,7.569-2.648,5.889,2.413,11.878,4.592,17.885,6.7.934.328,2.683.169,3.2-.465,3.065-3.721,5.877-7.649,8.877-11.645L1607.9,225.689c-3.362-4.7-3.287-5.534.887-9.707q2.3-2.3,4.612-4.59c4.3-4.269,4.985-4.315,10.017-.7,5.45,3.915,10.9,7.827,16.285,11.692l12.95-9.944c-2.544-6.762-4.955-13.456-7.591-20.059-1.377-3.449-.757-5.857,2.615-7.6,2.714-1.4,5.365-2.945,7.958-4.563,3.183-1.987,5.577-1.406,7.889,1.559,4.381,5.617,9,11.052,13.537,16.591l15.1-6.31c-.735-7.328-1.41-14.548-2.2-21.755-.371-3.381.981-5.317,4.275-6.1,3.1-.74,6.166-1.6,9.223-2.486,3.359-.979,5.593-.029,7.01,3.317,2.483,5.863,5.271,11.6,7.76,17.459.807,1.9,1.885,2.395,3.805,2.077,3.519-.583,7.055-1.15,10.606-1.421,2.142-.164,3.083-.794,3.388-3.079.827-6.186,2.038-12.319,2.967-18.493.537-3.566,2.139-5.554,6.037-5.325a77.563,77.563,0,0,0,9.182,0c3.853-.233,5.56,1.622,6.1,5.24.933,6.3,1.927,12.6,3.161,18.849a4.217,4.217,0,0,0,2.7,2.634c3.476.754,7.077.918,10.58,1.572,2.453.458,3.619-.331,4.571-2.633,2.386-5.764,5.118-11.384,7.635-17.1,1.361-3.088,3.493-4.141,6.753-3.141,2.8.859,5.649,1.547,8.479,2.3,4.843,1.291,5.544,2.227,5.066,7.284-.576,6.093-1.329,12.171-1.793,18.271-.082,1.075.589,2.86,1.411,3.243,4.35,2.021,8.859,3.7,13.427,5.541,4.7-5.745,9.329-11.341,13.878-17,2.021-2.515,4.269-2.963,7.027-1.32,2.3,1.369,4.65,2.651,6.963,4,5.665,3.295,5.822,3.782,3.446,10.037-2.335,6.149-4.656,12.3-6.956,18.383l12.983,9.951c5.917-4.233,11.843-8.408,17.694-12.689,2.707-1.98,5.066-1.988,7.426.527,2.007,2.139,4.15,4.149,6.219,6.229,3.579,3.6,3.675,4.7.73,8.834q-6.078,8.534-12.175,17.035c2.82,3.721,5.55,7.088,8,10.649,1.33,1.933,2.542,2.267,4.72,1.373,5.889-2.417,11.9-4.543,17.838-6.833,2.96-1.141,5.175-.523,6.727,2.37,1.385,2.582,2.924,5.081,4.38,7.625,2.69,4.7,2.524,5.623-1.57,8.993-5.391,4.438-10.781,8.877-16.094,13.253l6.337,15.069c6.9-.71,13.489-1.373,20.074-2.071,5.723-.605,6.612-.016,8.08,5.459.725,2.706,1.436,5.417,2.223,8.107.947,3.239-.09,5.349-3.233,6.7-5.849,2.52-11.575,5.326-17.449,7.779-2.1.878-2.542,2.044-2.208,4.093.6,3.645.827,7.359,1.6,10.961a4.218,4.218,0,0,0,2.723,2.618c6.12,1.218,12.334,1.973,18.441,3.245C1942.073,342.09,1943.8,343.592,1945.622,344.593Zm-195.98,55.728c26.319-.055,48.069-21.755,48.087-47.975.019-26.445-21.889-48.319-48.251-48.181a48.327,48.327,0,0,0-47.886,48.157C1701.668,378.663,1723.4,400.377,1749.642,400.321Zm-92.32,52.981,14.4-24.941a111.176,111.176,0,0,1-26.312-44.583c-.263-.853-1.437-2.019-2.2-2.031-9-.142-18.009-.091-27.055-.091C1618.359,403.071,1638.26,437.709,1657.323,453.3Zm14.059-177.773-14.2-24.543c-21.3,19.9-34.963,43.48-41.381,71.909,9.065,0,17.457-.1,25.844.059,2.529.046,3.29-1.007,4.217-3.2,3.5-8.295,6.837-16.741,11.295-24.525C1661.1,288.328,1666.455,282.238,1671.382,275.529Zm170.732-24.565L1827.6,276.1A112.709,112.709,0,0,1,1854,320.875c.288.934,2.213,1.893,3.4,1.929,6.113.191,12.236.082,18.355.079,2.485,0,4.97,0,7.841,0C1877.025,294.388,1863.293,270.864,1842.114,250.963ZM1842,453.316c21.557-19.6,34.866-43.306,41.557-71.659-9.481,0-18.487-.051-27.489.092-.758.012-1.916,1.2-2.18,2.057a110.31,110.31,0,0,1-24.838,42.991,3.2,3.2,0,0,0-.642,2.837C1832.737,437.4,1837.23,445.069,1842,453.316Zm-133.824,29.633c27.809,8.475,55.195,8.575,82.959.023-4.671-8.091-9.131-15.935-13.779-23.667-.418-.7-2.144-1.115-3.095-.9a112.841,112.841,0,0,1-49.264-.031,3.821,3.821,0,0,0-3.273,1.28C1717.194,467.165,1712.87,474.8,1708.175,482.949Zm0-261.393c4.643,8.048,9.041,15.785,13.615,23.415a3.5,3.5,0,0,0,3,1.2,111.452,111.452,0,0,1,49.622.02c.873.2,2.467-.153,2.84-.777,4.67-7.815,9.177-15.728,13.866-23.859C1763.247,213.057,1735.9,212.957,1708.177,221.556Z" transform="translate(-1553.617 -156.224)"/>
      </g>
      <g id="Group_189" data-name="Group 189" transform="translate(1115.447 228.164)">
        <path id="Path_89" data-name="Path 89" class="cls-12" d="M1962.5,483.063v11.3c-1.34.739-2.6,1.842-4.036,2.148a116.337,116.337,0,0,1-11.965,1.943c-2.8.3-4.127,1.307-4,4.317a24.75,24.75,0,0,1-.834,5.852c-.351,1.732.071,2.7,1.846,3.423,4.086,1.669,8.064,3.6,12.08,5.443,3.325,1.524,3.694,2.34,2.722,5.938-.465,1.723-.955,3.441-1.417,5.165-1.1,4.1-1.687,4.5-5.924,4.06-4.947-.515-9.9-1.011-14.88-1.519l-4.652,11.147c4.2,3.447,8.307,6.882,12.49,10.223,1.961,1.567,2.326,3.267,1.028,5.4-1.123,1.848-2.177,3.738-3.267,5.606-1.946,3.335-2.57,3.563-6.1,2.242-4.313-1.613-8.609-3.277-12.956-4.79a2.664,2.664,0,0,0-2.354.378c-2.267,2.735-4.349,5.623-6.422,8.364a2.034,2.034,0,0,0,.127.453c2.945,4.139,5.9,8.267,8.839,12.413,2.025,2.861,1.933,3.751-.583,6.307q-1.981,2.012-3.989,4c-2.839,2.824-3.541,2.9-6.727.636-4.361-3.1-8.706-6.217-13.113-9.366-2.449,2.014-4.694,4.035-7.126,5.8-1.574,1.139-1.888,2.185-1.135,4,1.8,4.339,3.35,8.779,5.046,13.161.846,2.185.4,3.81-1.729,4.967-2.065,1.121-4.112,2.287-6.09,3.554-2.453,1.571-4.27,1.085-6.042-1.193-3.224-4.144-6.636-8.141-9.922-12.142l-11.115,4.676c.547,5.448,1.027,10.69,1.619,15.919.3,2.629-.765,4.09-3.3,4.685-2.287.536-4.555,1.155-6.809,1.814-2.4.7-3.945-.065-4.946-2.38-1.865-4.313-3.938-8.536-5.753-12.869a2.336,2.336,0,0,0-3.013-1.634c-2.689.444-5.431.609-8.089,1.179a3.129,3.129,0,0,0-1.951,2.013c-.9,4.516-1.457,9.1-2.4,13.608-.3,1.437-1.411,2.7-2.151,4.05h-11.3c-.736-1.345-1.831-2.612-2.139-4.049-.826-3.857-1.453-7.771-1.893-11.692-.313-2.783-1.083-4.486-4.377-4.274a22.966,22.966,0,0,1-5.851-.821c-1.731-.35-2.7.065-3.425,1.843-1.668,4.088-3.6,8.067-5.44,12.087-1.525,3.336-2.326,3.7-5.936,2.729-1.725-.465-3.44-.964-5.164-1.429-4.1-1.1-4.5-1.705-4.059-5.921.519-4.947,1.005-9.9,1.51-14.895l-11.139-4.61c-3.4,4.136-6.818,8.146-10.066,12.285-1.736,2.212-3.533,2.493-5.846,1.035-1.908-1.2-3.869-2.332-5.865-3.382-2.343-1.233-2.891-2.919-1.911-5.375,1.742-4.364,3.38-8.771,4.949-13.2.254-.719.262-2.042-.178-2.406-2.8-2.318-5.763-4.445-8.709-6.663-4.362,3.119-8.622,6.056-12.755,9.163-2.337,1.757-4.221,1.581-6.138-.564-1.378-1.542-2.916-2.941-4.371-4.415-2.463-2.5-2.529-3.365-.429-6.307,3-4.2,6.014-8.393,9.042-12.615l-7.351-9.579c-4.889,1.837-9.631,3.625-14.377,5.4-3.648,1.366-4.269,1.157-6.177-2.08-1.051-1.783-2.009-3.624-3.131-5.359-1.571-2.427-1.173-4.257,1.133-6.047,4.151-3.219,8.147-6.637,12.147-9.921-1.285-3.111-2.586-5.933-3.606-8.853-.636-1.821-1.44-2.415-3.468-2.119-4.558.667-9.17.957-13.755,1.449-2.356.253-3.766-.7-4.34-3.005-.589-2.371-1.215-4.735-1.9-7.079-.7-2.395.039-3.969,2.347-4.973,4.31-1.875,8.545-3.927,12.879-5.743a2.327,2.327,0,0,0,1.667-2.994,71.022,71.022,0,0,1-1.019-7.548c-.111-1.69-.577-2.445-2.4-2.679-4.569-.586-9.1-1.482-13.652-2.182-2.658-.408-4.027-1.7-3.82-4.544.151-2.061.023-4.141.031-6.213.013-3.717.626-4.411,4.221-4.987,4.457-.715,8.9-1.567,13.369-2.157,1.695-.224,2.142-.917,2.254-2.5a71.518,71.518,0,0,1,1.015-7.547c.3-1.658-.182-2.518-1.786-3.191-4.333-1.819-8.573-3.859-12.867-5.771-2.147-.956-2.943-2.449-2.264-4.757.663-2.253,1.285-4.523,1.8-6.815.6-2.676,2.105-3.75,4.869-3.408,4.575.567,9.167,1.017,13.763,1.377.835.065,2.237-.295,2.5-.864,1.521-3.291,2.779-6.7,4.131-10.088l-11.5-9.428c-3.418-2.8-3.519-3.383-1.267-7.313.935-1.633,1.943-3.228,2.8-4.9,1.268-2.467,3-3.015,5.586-1.954,4.346,1.781,8.767,3.389,13.2,4.945a2.684,2.684,0,0,0,2.366-.343c2.261-2.747,4.337-5.646,6.551-8.595-2.939-4.111-5.834-8.163-8.73-12.214-2.481-3.471-2.426-4.085.655-7.165q1.7-1.7,3.4-3.387c3.175-3.151,3.679-3.185,7.393-.517,4.023,2.889,8.047,5.777,12.019,8.629l9.558-7.339c-1.877-4.991-3.657-9.931-5.6-14.805-1.016-2.545-.559-4.323,1.93-5.609,2-1.036,3.96-2.173,5.874-3.368,2.349-1.467,4.116-1.038,5.823,1.15,3.233,4.146,6.64,8.158,9.991,12.246l11.147-4.657c-.542-5.409-1.041-10.737-1.625-16.057-.274-2.5.725-3.924,3.156-4.505,2.285-.546,4.551-1.178,6.807-1.835,2.479-.722,4.128-.021,5.174,2.449,1.833,4.328,3.89,8.56,5.727,12.886a2.206,2.206,0,0,0,2.809,1.533c2.6-.431,5.207-.849,7.828-1.049,1.581-.121,2.275-.585,2.5-2.273.61-4.566,1.5-9.093,2.189-13.649.4-2.632,1.579-4.1,4.456-3.931a57.16,57.16,0,0,0,6.777,0c2.844-.172,4.1,1.2,4.5,3.867.688,4.652,1.423,9.3,2.333,13.912a3.111,3.111,0,0,0,1.993,1.945c2.566.556,5.223.677,7.809,1.16,1.811.338,2.671-.245,3.374-1.943,1.761-4.254,3.777-8.4,5.635-12.617,1-2.279,2.578-3.057,4.984-2.318,2.065.633,4.169,1.141,6.258,1.7,3.574.953,4.092,1.644,3.739,5.377-.425,4.5-.981,8.983-1.323,13.485a2.925,2.925,0,0,0,1.042,2.393c3.211,1.492,6.539,2.73,9.91,4.09,3.467-4.241,6.886-8.37,10.243-12.549,1.491-1.856,3.151-2.187,5.186-.974,1.7,1.011,3.432,1.956,5.139,2.949,4.182,2.431,4.3,2.791,2.544,7.408-1.724,4.538-3.437,9.081-5.134,13.567l9.583,7.345c4.367-3.125,8.741-6.206,13.059-9.365,2-1.462,3.739-1.467,5.48.389,1.481,1.578,3.063,3.062,4.591,4.6,2.641,2.657,2.712,3.469.539,6.52q-4.486,6.3-8.986,12.573c2.082,2.746,4.1,5.232,5.9,7.86.981,1.427,1.875,1.673,3.484,1.013,4.347-1.783,8.78-3.353,13.166-5.043,2.185-.842,3.819-.387,4.965,1.749,1.022,1.905,2.157,3.75,3.233,5.627,1.985,3.467,1.862,4.15-1.159,6.637l-11.879,9.782,4.677,11.121c5.094-.524,9.956-1.013,14.816-1.528,4.224-.447,4.88-.012,5.963,4.029.535,2,1.06,4,1.641,5.983.7,2.391-.067,3.948-2.386,4.947-4.317,1.86-8.542,3.931-12.879,5.742a2.343,2.343,0,0,0-1.63,3.02c.44,2.691.611,5.432,1.181,8.091a3.11,3.11,0,0,0,2.009,1.932c4.517.9,9.1,1.457,13.611,2.395C1959.879,481.215,1961.152,482.324,1962.5,483.063Zm-144.648,41.131a35.485,35.485,0,1,0-35.465-35.426A35.734,35.734,0,0,0,1817.852,524.194Zm-68.139,39.1,10.631-18.408a82.054,82.054,0,0,1-19.421-32.905c-.193-.629-1.06-1.491-1.625-1.5-6.645-.105-13.292-.067-19.969-.067C1720.955,526.223,1735.643,551.789,1749.713,563.3Zm10.377-131.209-10.483-18.115a101.089,101.089,0,0,0-30.542,53.075c6.69,0,12.884-.071,19.075.043,1.866.035,2.428-.743,3.113-2.365,2.584-6.122,5.047-12.356,8.336-18.1C1752.5,441.535,1756.453,437.04,1760.09,432.088ZM1886.1,413.957l-10.712,18.557a83.186,83.186,0,0,1,19.481,33.043c.213.689,1.633,1.4,2.512,1.424,4.512.141,9.031.061,13.547.059,1.834,0,3.668,0,5.787,0A102.407,102.407,0,0,0,1886.1,413.957Zm-.085,149.352c15.911-14.469,25.733-31.963,30.672-52.891-7,0-13.645-.037-20.289.068-.56.009-1.414.885-1.609,1.518a81.422,81.422,0,0,1-18.332,31.731,2.362,2.362,0,0,0-.474,2.094C1879.182,551.559,1882.5,557.221,1886.018,563.309Zm-98.772,21.871a101.79,101.79,0,0,0,61.229.017c-3.448-5.971-6.74-11.761-10.17-17.468a2.643,2.643,0,0,0-2.284-.668,83.286,83.286,0,0,1-36.361-.023,2.819,2.819,0,0,0-2.416.945C1793.9,573.53,1790.711,579.169,1787.246,585.18Zm0-192.928c3.427,5.94,6.673,11.651,10.049,17.283a2.58,2.58,0,0,0,2.211.885,82.248,82.248,0,0,1,36.625.015,2.426,2.426,0,0,0,2.1-.574c3.448-5.768,6.773-11.608,10.234-17.609A101.347,101.347,0,0,0,1787.248,392.252Z" transform="translate(-1673.17 -344.032)"/>
      </g>
      <g id="Group_193" data-name="Group 193" transform="translate(262.84 486.907)">
        <g id="Group_190" data-name="Group 190" transform="translate(0 188.918)">
          <path id="Path_90" data-name="Path 90" class="cls-13" d="M714.1,1161.768v27.425c-.1,2.9-2.079,3.677-4.5,4.126-8.28,1.532-16.532,3.221-24.826,4.667-2.556.445-4.1,1.485-4.729,4.073-1.185,4.851-2.5,9.672-3.854,14.481a2.49,2.49,0,0,0,.872,2.847c3.207,2.858,6.384,5.751,9.576,8.627,3.959,3.567,7.908,7.147,11.892,10.687a2.988,2.988,0,0,1,.782,4.154c-4.607,8.127-9.13,16.3-13.826,24.377-1.451,2.5-2.254,2.646-5.025,1.674q-13.219-4.636-26.387-9.415a2.435,2.435,0,0,0-3.085.677c-3.789,3.979-7.61,7.935-11.6,11.707-1.525,1.442-1.6,2.608-.912,4.464,3.147,8.5,6.153,17.061,9.155,25.618.887,2.529.651,3.113-1.335,4.607a17.984,17.984,0,0,1-1.887,1.283c-6.844,3.9-13.613,7.944-20.575,11.623-4.989,2.637-4.378,2.876-8.3-1.453-5.912-6.531-11.578-13.286-17.3-19.985a2.142,2.142,0,0,0-2.61-.821c-5.116,1.453-10.256,2.83-15.423,4.086a3.768,3.768,0,0,0-3.191,3.371q-1.25,7.145-2.651,14.263c-.9,4.581-1.909,9.143-2.86,13.716a2.774,2.774,0,0,1-2.889,2.545,5.1,5.1,0,0,0-1.1.265H541.389a14.345,14.345,0,0,0-1.419-.293c-2.335-.251-2.777-.539-3.349-2.831q-.986-3.951-1.749-7.957c-1.239-6.513-2.465-13.029-3.591-19.561a3.924,3.924,0,0,0-3.559-3.6c-2.4-.44-4.767-1.072-7.143-1.647-2.8-.676-5.591-1.361-8.375-2.081a2.239,2.239,0,0,0-2.538.942c-1.54,1.9-3.14,3.757-4.758,5.594-4.673,5.305-9.383,10.578-14.042,15.9a2.97,2.97,0,0,1-4.159.705c-8.13-4.6-16.3-9.132-24.377-13.829-2.445-1.422-2.6-2.211-1.666-4.885q4.683-13.377,9.512-26.7a2.127,2.127,0,0,0-.555-2.677q-6.409-6.17-12.658-12.5a2.15,2.15,0,0,0-2.678-.563q-12.932,4.717-25.913,9.3c-3.467,1.218-4.117,1.021-6.021-2.1-3.087-5.055-6.058-10.183-8.969-15.342-1.653-2.93-3.069-5.993-4.633-8.975a2.387,2.387,0,0,1,.567-3.2c2.516-2.325,4.969-4.721,7.533-6.992,4.806-4.256,9.691-8.421,14.486-12.689a2.616,2.616,0,0,0,.893-2.015c-1.4-5.639-2.931-11.246-4.441-16.858a2.919,2.919,0,0,0-2.641-2.289c-2.472-.368-4.93-.833-7.385-1.3-6.723-1.286-13.453-2.538-20.155-3.925-2.7-.557-3.115-1.037-3.157-3.741-.135-8.974-.145-17.949-.19-26.924,0-.54.151-1.08.165-1.622a2.55,2.55,0,0,1,2.219-2.619c1.849-.439,3.687-.941,5.552-1.3,7.523-1.449,15.049-2.885,22.587-4.256a3.871,3.871,0,0,0,3.524-3.229c1.272-5.276,2.711-10.514,4.164-15.745a1.594,1.594,0,0,0-.561-1.955c-2.838-2.373-5.666-4.759-8.445-7.2-4.657-4.091-9.27-8.233-13.908-12.345a2.841,2.841,0,0,1-.67-3.907c4.614-8.186,9.159-16.413,13.873-24.541,1.417-2.444,2.243-2.622,4.883-1.7q13.457,4.7,26.859,9.565a2.015,2.015,0,0,0,2.528-.567q6.128-6.335,12.392-12.539a2.37,2.37,0,0,0,.692-2.941q-4.819-13.156-9.438-26.386c-.962-2.738-.73-3.455,1.687-5.042,2.679-1.759,5.426-3.423,8.219-4.994,5.066-2.851,10.152-5.672,15.3-8.369,3.059-1.6,3.265-1.486,5.748.988q2.022,2.014,3.889,4.181c4.93,5.734,9.815,11.508,14.765,17.224a2.174,2.174,0,0,0,1.7.737c5.579-1.406,11.131-2.922,16.693-4.4a2.872,2.872,0,0,0,2.339-2.4c.593-3.15,1.267-6.285,1.877-9.431,1.219-6.293,2.361-12.6,3.653-18.88.512-2.487,1-2.826,3.559-2.952,3.475-.171,6.958-.289,10.437-.277,6.037.021,12.072.162,18.108.243a2.668,2.668,0,0,1,2.814,2.4c.288,1.327.7,2.628.952,3.959,1.542,8.059,3.091,16.117,4.551,24.191a3.767,3.767,0,0,0,3.227,3.327c5.271,1.3,10.512,2.717,15.744,4.164a1.571,1.571,0,0,0,1.961-.532c1.123-1.4,2.321-2.739,3.5-4.094,5.069-5.827,10.075-11.712,15.243-17.449,2.358-2.617,2.667-2.667,5.719-1q11.506,6.3,22.845,12.908c3.289,1.921,3.416,2.547,2.163,6.109q-4.57,12.987-9.285,25.923a2.049,2.049,0,0,0,.513,2.554q6.273,6.192,12.385,12.545a2.428,2.428,0,0,0,3.075.685q13.081-4.779,26.231-9.366c3-1.049,3.687-.837,5.385,1.882,2.619,4.194,5.135,8.456,7.582,12.753,1.962,3.445,3.822,6.953,5.605,10.495,1.555,3.087,1.507,3.229-.929,5.585-2.11,2.041-4.3,4-6.491,5.959-4.743,4.244-9.523,8.447-14.242,12.717-.544.493-1.253,1.417-1.12,1.95,1.423,5.686,2.989,11.337,4.545,16.989a3.044,3.044,0,0,0,2.713,2.216c8.759,1.637,17.5,3.363,26.263,4.989C712.037,1158.083,713.977,1158.887,714.1,1161.768Zm-160.071,88.989c41.6,0,75.371-34.621,75.387-75.671.015-37.854-31.507-74.609-74.8-74.884-41.727-.265-75.739,33.893-75.707,75.144C478.937,1216.894,512.6,1250.736,554.029,1250.756Z" transform="translate(-394.26 -1015.523)"/>
        </g>
        <g id="Group_191" data-name="Group 191" transform="translate(242.639)">
          <path id="Path_91" data-name="Path 91" class="cls-14" d="M1078.058,878.391v27.425c-.1,2.9-2.079,3.678-4.5,4.127-8.28,1.532-16.531,3.221-24.826,4.667-2.555.445-4.1,1.485-4.729,4.073-1.185,4.851-2.5,9.672-3.854,14.48a2.49,2.49,0,0,0,.872,2.847c3.207,2.859,6.385,5.752,9.577,8.628,3.959,3.567,7.907,7.147,11.891,10.687a2.99,2.99,0,0,1,.783,4.155c-4.607,8.127-9.13,16.3-13.827,24.377-1.451,2.5-2.254,2.645-5.025,1.674q-13.219-4.636-26.387-9.416a2.437,2.437,0,0,0-3.085.677c-3.789,3.979-7.609,7.936-11.6,11.708-1.525,1.441-1.6,2.607-.913,4.463,3.148,8.5,6.153,17.061,9.155,25.619.887,2.529.651,3.112-1.335,4.607a18.121,18.121,0,0,1-1.887,1.283c-6.844,3.9-13.613,7.944-20.575,11.623-4.989,2.637-4.379,2.876-8.3-1.454-5.912-6.531-11.577-13.285-17.3-19.985a2.142,2.142,0,0,0-2.611-.821c-5.115,1.453-10.256,2.829-15.423,4.085a3.769,3.769,0,0,0-3.191,3.371q-1.25,7.145-2.651,14.263c-.905,4.581-1.909,9.143-2.86,13.715a2.775,2.775,0,0,1-2.889,2.546,5.1,5.1,0,0,0-1.1.265H905.347c-.473-.1-.941-.241-1.419-.292-2.335-.251-2.777-.539-3.349-2.831q-.985-3.951-1.749-7.956c-1.239-6.513-2.465-13.029-3.59-19.562a3.925,3.925,0,0,0-3.56-3.595c-2.4-.44-4.767-1.072-7.143-1.647-2.8-.677-5.59-1.361-8.375-2.082a2.238,2.238,0,0,0-2.537.942c-1.541,1.9-3.14,3.757-4.758,5.595-4.673,5.305-9.383,10.578-14.043,15.9a2.969,2.969,0,0,1-4.159.7c-8.129-4.6-16.3-9.131-24.377-13.828-2.444-1.422-2.6-2.211-1.666-4.886q4.683-13.376,9.512-26.7a2.126,2.126,0,0,0-.555-2.677q-6.408-6.17-12.657-12.5a2.149,2.149,0,0,0-2.679-.563q-12.932,4.717-25.913,9.3c-3.468,1.217-4.117,1.02-6.022-2.1-3.087-5.055-6.057-10.183-8.968-15.341-1.653-2.93-3.069-5.994-4.633-8.975a2.387,2.387,0,0,1,.568-3.2c2.516-2.325,4.969-4.721,7.533-6.992,4.806-4.255,9.692-8.421,14.487-12.689a2.615,2.615,0,0,0,.893-2.015c-1.4-5.639-2.931-11.246-4.442-16.857a2.919,2.919,0,0,0-2.641-2.29c-2.471-.367-4.93-.833-7.385-1.3-6.722-1.286-13.452-2.539-20.155-3.925-2.695-.557-3.115-1.037-3.156-3.741-.136-8.973-.145-17.949-.19-26.923,0-.541.151-1.081.165-1.623a2.549,2.549,0,0,1,2.218-2.618c1.849-.439,3.687-.941,5.552-1.3,7.523-1.449,15.049-2.884,22.587-4.255a3.871,3.871,0,0,0,3.523-3.229c1.273-5.277,2.711-10.514,4.164-15.745a1.593,1.593,0,0,0-.561-1.954c-2.838-2.373-5.667-4.759-8.445-7.2-4.657-4.092-9.269-8.233-13.908-12.346a2.841,2.841,0,0,1-.67-3.906c4.614-8.187,9.159-16.413,13.873-24.541,1.417-2.444,2.243-2.622,4.884-1.7q13.457,4.7,26.858,9.565a2.015,2.015,0,0,0,2.528-.567q6.128-6.336,12.392-12.539a2.371,2.371,0,0,0,.692-2.941q-4.819-13.157-9.438-26.386c-.962-2.738-.729-3.456,1.687-5.042,2.679-1.759,5.427-3.423,8.219-4.995,5.067-2.851,10.152-5.672,15.3-8.368,3.059-1.6,3.265-1.487,5.749.987,1.347,1.343,2.649,2.739,3.889,4.182,4.931,5.734,9.815,11.507,14.765,17.224a2.173,2.173,0,0,0,1.7.737c5.579-1.405,11.131-2.922,16.692-4.4a2.873,2.873,0,0,0,2.339-2.4c.593-3.15,1.267-6.284,1.877-9.431,1.219-6.293,2.361-12.6,3.653-18.881.512-2.487,1-2.826,3.559-2.951,3.475-.171,6.958-.289,10.437-.277,6.036.02,12.072.162,18.108.242a2.669,2.669,0,0,1,2.814,2.4c.287,1.326.7,2.627.951,3.959,1.542,8.059,3.091,16.117,4.551,24.191a3.768,3.768,0,0,0,3.227,3.327c5.271,1.3,10.512,2.717,15.745,4.163a1.571,1.571,0,0,0,1.961-.532c1.122-1.4,2.321-2.739,3.5-4.093,5.069-5.828,10.074-11.713,15.243-17.45,2.358-2.617,2.667-2.666,5.719-.995q11.506,6.3,22.845,12.908c3.289,1.921,3.416,2.547,2.163,6.109q-4.57,12.988-9.286,25.923a2.051,2.051,0,0,0,.513,2.554q6.273,6.192,12.385,12.545a2.427,2.427,0,0,0,3.075.685q13.08-4.779,26.231-9.365c2.995-1.049,3.687-.837,5.384,1.881,2.619,4.195,5.135,8.456,7.582,12.753,1.962,3.445,3.822,6.953,5.606,10.495,1.555,3.087,1.507,3.229-.929,5.585-2.111,2.041-4.3,4-6.491,5.959-4.743,4.244-9.523,8.447-14.242,12.717-.544.492-1.253,1.417-1.12,1.949,1.423,5.686,2.989,11.337,4.546,16.989a3.045,3.045,0,0,0,2.713,2.217c8.759,1.637,17.5,3.363,26.263,4.989C1075.994,874.706,1077.935,875.51,1078.058,878.391ZM917.987,967.379c41.6,0,75.371-34.621,75.387-75.671.015-37.853-31.507-74.608-74.8-74.883-41.727-.265-75.738,33.893-75.707,75.144C842.895,933.517,876.555,967.359,917.987,967.379Z" transform="translate(-758.218 -732.146)"/>
        </g>
        <g id="Group_192" data-name="Group 192" transform="translate(431.854 240.225)">
          <path id="Path_92" data-name="Path 92" class="cls-15" d="M1361.881,1238.729v27.425c-.1,2.9-2.079,3.677-4.5,4.126-8.279,1.533-16.531,3.221-24.826,4.667-2.555.445-4.1,1.485-4.729,4.073-1.185,4.851-2.5,9.672-3.853,14.48a2.488,2.488,0,0,0,.871,2.847c3.208,2.859,6.385,5.751,9.577,8.628,3.959,3.567,7.907,7.147,11.891,10.687a2.989,2.989,0,0,1,.783,4.154c-4.607,8.127-9.13,16.3-13.826,24.377-1.452,2.5-2.254,2.645-5.025,1.674q-13.218-4.636-26.386-9.416a2.438,2.438,0,0,0-3.085.677c-3.789,3.979-7.609,7.936-11.6,11.708-1.525,1.441-1.6,2.607-.912,4.463,3.147,8.5,6.153,17.061,9.155,25.619.887,2.529.651,3.112-1.335,4.607a17.923,17.923,0,0,1-1.887,1.283c-6.843,3.9-13.613,7.945-20.575,11.624-4.989,2.637-4.378,2.876-8.3-1.454-5.911-6.531-11.577-13.285-17.3-19.985a2.142,2.142,0,0,0-2.61-.821c-5.116,1.453-10.256,2.829-15.424,4.085a3.769,3.769,0,0,0-3.191,3.371q-1.25,7.144-2.651,14.263c-.9,4.581-1.909,9.143-2.86,13.715a2.775,2.775,0,0,1-2.889,2.546,5.066,5.066,0,0,0-1.1.265H1189.17a14.343,14.343,0,0,0-1.419-.292c-2.335-.251-2.777-.539-3.349-2.831q-.986-3.951-1.75-7.957c-1.239-6.512-2.464-13.029-3.59-19.561a3.925,3.925,0,0,0-3.56-3.595c-2.4-.44-4.767-1.072-7.142-1.647-2.8-.677-5.591-1.361-8.376-2.082a2.238,2.238,0,0,0-2.537.942c-1.541,1.9-3.14,3.757-4.758,5.595-4.673,5.305-9.383,10.578-14.043,15.9a2.968,2.968,0,0,1-4.159.705c-8.13-4.6-16.3-9.131-24.377-13.828-2.445-1.422-2.6-2.211-1.666-4.886q4.682-13.377,9.512-26.7a2.127,2.127,0,0,0-.555-2.677q-6.408-6.17-12.657-12.5a2.149,2.149,0,0,0-2.679-.563q-12.932,4.717-25.913,9.3c-3.468,1.217-4.117,1.02-6.021-2.1-3.087-5.055-6.058-10.183-8.969-15.341-1.653-2.93-3.069-5.994-4.633-8.975a2.388,2.388,0,0,1,.568-3.2c2.516-2.325,4.969-4.721,7.533-6.992,4.806-4.255,9.692-8.421,14.487-12.689a2.615,2.615,0,0,0,.893-2.015c-1.4-5.639-2.931-11.246-4.442-16.857a2.918,2.918,0,0,0-2.64-2.29c-2.472-.367-4.931-.833-7.385-1.3-6.723-1.286-13.453-2.539-20.155-3.925-2.7-.558-3.116-1.037-3.157-3.741-.136-8.973-.145-17.949-.19-26.923,0-.541.151-1.081.165-1.623a2.549,2.549,0,0,1,2.218-2.618c1.849-.439,3.687-.941,5.552-1.3,7.523-1.449,15.049-2.884,22.587-4.255a3.871,3.871,0,0,0,3.523-3.229c1.273-5.277,2.711-10.514,4.164-15.745a1.594,1.594,0,0,0-.561-1.955c-2.838-2.372-5.667-4.758-8.445-7.2-4.657-4.091-9.269-8.233-13.907-12.345a2.84,2.84,0,0,1-.67-3.906c4.614-8.187,9.159-16.413,13.873-24.541,1.417-2.443,2.243-2.621,4.884-1.7q13.457,4.7,26.859,9.565a2.014,2.014,0,0,0,2.527-.568q6.129-6.335,12.393-12.538a2.371,2.371,0,0,0,.691-2.941q-4.818-13.157-9.437-26.386c-.962-2.739-.73-3.456,1.686-5.042,2.679-1.759,5.427-3.423,8.219-4.995,5.067-2.851,10.152-5.672,15.3-8.369,3.059-1.6,3.265-1.486,5.749.988q2.022,2.014,3.889,4.182c4.931,5.734,9.815,11.507,14.765,17.224a2.173,2.173,0,0,0,1.7.737c5.579-1.405,11.131-2.922,16.692-4.4a2.873,2.873,0,0,0,2.339-2.4c.593-3.15,1.267-6.284,1.876-9.431,1.219-6.293,2.361-12.6,3.653-18.881.512-2.487,1-2.826,3.559-2.951,3.476-.171,6.958-.289,10.437-.277,6.036.021,12.072.163,18.108.243a2.669,2.669,0,0,1,2.814,2.4c.287,1.326.7,2.627.952,3.959,1.541,8.059,3.091,16.117,4.551,24.191a3.768,3.768,0,0,0,3.226,3.327c5.271,1.3,10.513,2.717,15.745,4.163a1.571,1.571,0,0,0,1.961-.532c1.122-1.4,2.321-2.739,3.5-4.093,5.069-5.828,10.074-11.713,15.243-17.45,2.358-2.617,2.667-2.666,5.719-.995q11.506,6.3,22.845,12.908c3.289,1.92,3.416,2.547,2.163,6.109q-4.57,12.988-9.286,25.923a2.049,2.049,0,0,0,.513,2.553q6.272,6.192,12.385,12.545a2.427,2.427,0,0,0,3.075.685q13.08-4.779,26.231-9.365c3-1.049,3.687-.837,5.385,1.881q3.928,6.292,7.581,12.753c1.962,3.445,3.823,6.953,5.606,10.495,1.555,3.087,1.507,3.229-.929,5.585-2.111,2.041-4.3,4-6.491,5.959-4.743,4.244-9.523,8.447-14.242,12.717-.545.492-1.253,1.417-1.121,1.949,1.423,5.686,2.989,11.337,4.546,16.989a3.046,3.046,0,0,0,2.713,2.217c8.759,1.637,17.5,3.363,26.263,4.989C1359.817,1235.045,1361.758,1235.849,1361.881,1238.729Zm-160.071,88.988c41.6,0,75.371-34.621,75.387-75.671.015-37.853-31.507-74.608-74.8-74.883-41.727-.265-75.738,33.893-75.707,75.144C1126.718,1293.855,1160.378,1327.7,1201.81,1327.717Z" transform="translate(-1042.041 -1092.484)"/>
        </g>
      </g>
      <g id="Group_194" data-name="Group 194" transform="translate(898.964 540.659)">
        <path id="Path_93" data-name="Path 93" class="cls-16" d="M1469.755,868.242v10.4c-.039,1.1-.789,1.395-1.708,1.565-3.141.581-6.27,1.222-9.416,1.77a1.917,1.917,0,0,0-1.794,1.545c-.449,1.84-.949,3.668-1.461,5.492a.944.944,0,0,0,.331,1.08c1.217,1.084,2.421,2.181,3.632,3.272,1.5,1.353,3,2.711,4.51,4.053a1.134,1.134,0,0,1,.3,1.576c-1.747,3.083-3.463,6.183-5.244,9.245-.551.947-.855,1-1.906.635q-5.014-1.759-10.008-3.571a.924.924,0,0,0-1.17.257c-1.437,1.509-2.886,3.01-4.4,4.441a1.326,1.326,0,0,0-.346,1.693c1.194,3.225,2.333,6.471,3.472,9.716.337.959.247,1.181-.506,1.748a6.913,6.913,0,0,1-.716.487c-2.6,1.479-5.163,3.013-7.8,4.409-1.892,1-1.66,1.091-3.147-.552-2.243-2.477-4.391-5.039-6.563-7.579a.812.812,0,0,0-.99-.311c-1.94.551-3.89,1.073-5.849,1.549a1.429,1.429,0,0,0-1.211,1.279q-.474,2.71-1.005,5.409c-.343,1.738-.724,3.468-1.085,5.2a1.052,1.052,0,0,1-1.1.965,1.884,1.884,0,0,0-.417.1h-9.907a5.422,5.422,0,0,0-.538-.111c-.886-.095-1.053-.2-1.27-1.073q-.374-1.5-.664-3.018c-.47-2.47-.935-4.941-1.361-7.419a1.488,1.488,0,0,0-1.351-1.363c-.91-.167-1.808-.407-2.709-.625-1.061-.257-2.121-.517-3.177-.789a.849.849,0,0,0-.963.357c-.584.721-1.191,1.425-1.8,2.122-1.772,2.013-3.559,4.012-5.326,6.029a1.126,1.126,0,0,1-1.577.267c-3.083-1.745-6.183-3.463-9.246-5.245-.927-.539-.987-.839-.632-1.853q1.776-5.073,3.608-10.127a.806.806,0,0,0-.211-1.015q-2.43-2.341-4.8-4.743a.815.815,0,0,0-1.016-.213q-4.905,1.789-9.828,3.527c-1.315.462-1.562.387-2.284-.8-1.171-1.917-2.3-3.862-3.4-5.819-.627-1.111-1.164-2.273-1.757-3.4a.905.905,0,0,1,.215-1.213c.954-.882,1.885-1.791,2.857-2.652,1.823-1.614,3.676-3.194,5.495-4.813a.992.992,0,0,0,.339-.765c-.531-2.139-1.112-4.265-1.685-6.393a1.108,1.108,0,0,0-1-.869c-.938-.139-1.87-.316-2.8-.494-2.55-.488-5.1-.963-7.645-1.489-1.022-.211-1.181-.393-1.2-1.419-.052-3.4-.055-6.808-.072-10.212,0-.2.057-.409.062-.615a.967.967,0,0,1,.841-.993c.7-.167,1.4-.357,2.106-.493,2.853-.55,5.708-1.094,8.567-1.614a1.469,1.469,0,0,0,1.337-1.225c.483-2,1.028-3.988,1.579-5.972a.6.6,0,0,0-.213-.741c-1.077-.9-2.149-1.8-3.2-2.731-1.766-1.552-3.515-3.123-5.275-4.683a1.076,1.076,0,0,1-.254-1.481c1.75-3.105,3.473-6.225,5.261-9.308.538-.927.851-.995,1.853-.645q5.1,1.784,10.187,3.628a.764.764,0,0,0,.959-.215q2.325-2.4,4.7-4.755a.9.9,0,0,0,.262-1.116q-1.828-4.99-3.579-10.007c-.365-1.039-.277-1.311.639-1.913,1.016-.667,2.058-1.3,3.117-1.894,1.922-1.081,3.851-2.151,5.8-3.174,1.16-.608,1.238-.564,2.18.375q.767.764,1.475,1.586c1.87,2.175,3.722,4.365,5.6,6.533a.823.823,0,0,0,.646.279c2.116-.533,4.221-1.108,6.331-1.669a1.09,1.09,0,0,0,.887-.911c.225-1.195.481-2.383.712-3.577.462-2.387.9-4.78,1.385-7.161.194-.943.379-1.072,1.35-1.119,1.318-.065,2.639-.109,3.959-.105,2.289.008,4.579.062,6.868.092a1.013,1.013,0,0,1,1.067.911c.109.5.264,1,.361,1.5.585,3.057,1.173,6.113,1.726,9.175a1.43,1.43,0,0,0,1.224,1.263c2,.492,3.987,1.03,5.971,1.579a.6.6,0,0,0,.744-.2c.425-.531.88-1.039,1.327-1.553,1.923-2.211,3.821-4.443,5.782-6.619.894-.993,1.011-1.011,2.169-.377q4.364,2.39,8.665,4.9c1.247.728,1.3.966.82,2.317q-1.733,4.926-3.521,9.832a.777.777,0,0,0,.194.969q2.379,2.349,4.7,4.759a.921.921,0,0,0,1.167.259q4.961-1.812,9.949-3.552c1.136-.4,1.4-.318,2.043.713q1.489,2.387,2.875,4.837c.744,1.307,1.45,2.637,2.126,3.981.59,1.171.572,1.225-.352,2.118-.8.775-1.632,1.518-2.462,2.261-1.8,1.609-3.612,3.2-5.4,4.823-.207.187-.476.537-.425.739.54,2.157,1.134,4.3,1.724,6.443a1.155,1.155,0,0,0,1.029.841c3.322.621,6.638,1.276,9.961,1.892C1468.973,866.845,1469.709,867.149,1469.755,868.242Zm-60.712,33.752a28.841,28.841,0,0,0,28.593-28.7c.006-14.357-11.95-28.3-28.372-28.4a28.552,28.552,0,1,0-.221,57.1Z" transform="translate(-1348.446 -812.774)"/>
      </g>
      <g id="Group_196" data-name="Group 196" transform="translate(952.722 367.335)">
        <path id="Path_94" data-name="Path 94" class="cls-16" d="M1618.5,759.324v5.829c-.022.617-.442.781-.957.877-1.759.326-3.513.685-5.277.992a1.073,1.073,0,0,0-1,.866c-.252,1.031-.532,2.055-.819,3.077a.53.53,0,0,0,.185.605c.682.607,1.357,1.223,2.035,1.834.841.758,1.681,1.519,2.527,2.271a.635.635,0,0,1,.167.883c-.979,1.727-1.941,3.465-2.939,5.181-.309.53-.479.562-1.068.355q-2.81-.985-5.609-2a.517.517,0,0,0-.655.144c-.805.845-1.617,1.687-2.466,2.488a.743.743,0,0,0-.193.949c.669,1.807,1.307,3.627,1.945,5.445.189.537.139.661-.283.979a3.883,3.883,0,0,1-.4.273c-1.455.829-2.893,1.688-4.373,2.47-1.06.561-.93.611-1.763-.309-1.257-1.388-2.461-2.824-3.677-4.247a.455.455,0,0,0-.555-.175c-1.087.309-2.18.6-3.278.868a.8.8,0,0,0-.679.717q-.265,1.519-.563,3.031c-.192.974-.405,1.943-.607,2.915a.589.589,0,0,1-.614.541,1.057,1.057,0,0,0-.234.057H1581.8a3,3,0,0,0-.3-.062c-.5-.053-.591-.115-.712-.6q-.21-.84-.372-1.691c-.263-1.385-.524-2.769-.763-4.158a.834.834,0,0,0-.756-.764c-.511-.093-1.013-.228-1.519-.35-.594-.144-1.188-.289-1.78-.443a.476.476,0,0,0-.539.2c-.327.4-.667.8-1.011,1.189-.993,1.128-1.994,2.249-2.985,3.379a.631.631,0,0,1-.884.15c-1.727-.978-3.465-1.941-5.181-2.939-.52-.3-.553-.47-.354-1.038q.995-2.843,2.021-5.675a.452.452,0,0,0-.118-.569q-1.362-1.311-2.69-2.657a.458.458,0,0,0-.569-.12q-2.749,1-5.507,1.977c-.737.259-.875.217-1.28-.446-.656-1.074-1.287-2.164-1.906-3.261-.351-.623-.653-1.273-.985-1.907a.507.507,0,0,1,.121-.679c.535-.495,1.056-1,1.6-1.487,1.021-.9,2.06-1.789,3.079-2.7a.555.555,0,0,0,.189-.428c-.3-1.2-.623-2.391-.944-3.583a.621.621,0,0,0-.561-.487c-.525-.078-1.048-.177-1.569-.277-1.429-.273-2.859-.539-4.284-.834-.573-.119-.662-.221-.671-.8-.029-1.907-.031-3.815-.041-5.722,0-.115.032-.23.035-.345a.541.541,0,0,1,.471-.556c.393-.093.783-.2,1.18-.277q2.4-.462,4.8-.9a.822.822,0,0,0,.749-.686c.271-1.121.577-2.235.885-3.347a.338.338,0,0,0-.119-.415c-.6-.5-1.2-1.011-1.795-1.53-.99-.87-1.971-1.75-2.956-2.624a.6.6,0,0,1-.143-.831c.981-1.74,1.947-3.488,2.949-5.216.3-.519.477-.557,1.038-.361q2.86,1,5.709,2.033a.428.428,0,0,0,.537-.121q1.3-1.346,2.634-2.665a.5.5,0,0,0,.147-.625q-1.024-2.8-2.006-5.608c-.2-.582-.155-.735.359-1.071.569-.374,1.153-.728,1.747-1.062,1.077-.605,2.158-1.205,3.253-1.779.65-.34.694-.315,1.221.21.287.285.563.583.827.889,1.048,1.219,2.086,2.445,3.138,3.661a.462.462,0,0,0,.362.157c1.186-.3,2.366-.621,3.548-.935a.611.611,0,0,0,.5-.511c.126-.669.269-1.335.4-2,.259-1.338.5-2.679.777-4.013.109-.529.212-.6.756-.628.739-.036,1.479-.061,2.219-.059,1.283,0,2.565.035,3.849.052a.567.567,0,0,1,.6.51c.061.282.148.559.2.841.328,1.713.657,3.425.967,5.142a.8.8,0,0,0,.686.707c1.12.276,2.234.578,3.346.885a.334.334,0,0,0,.417-.113c.239-.3.493-.582.744-.87,1.077-1.239,2.141-2.489,3.24-3.709.5-.557.567-.567,1.215-.211q2.445,1.339,4.855,2.743c.7.408.726.541.459,1.3q-.971,2.76-1.973,5.509a.435.435,0,0,0,.109.543q1.333,1.316,2.632,2.667a.516.516,0,0,0,.653.145q2.78-1.016,5.575-1.991c.637-.223.783-.178,1.145.4.557.891,1.091,1.8,1.611,2.711.417.732.812,1.478,1.191,2.231.331.656.32.686-.2,1.187-.449.433-.915.85-1.379,1.266-1.009.9-2.024,1.8-3.027,2.7-.115.1-.267.3-.238.414.3,1.209.635,2.41.966,3.611a.647.647,0,0,0,.577.471c1.861.348,3.72.715,5.582,1.061C1618.066,758.541,1618.478,758.712,1618.5,759.324Zm-34.022,18.913a16,16,0,1,0-15.967-16.028A16.163,16.163,0,0,0,1584.482,778.238Z" transform="translate(-1469.564 -611.273)"/>
        <g id="Group_195" data-name="Group 195">
          <path id="Path_95" data-name="Path 95" class="cls-17" d="M1523.465,595.945v8.093c-.03.857-.613,1.085-1.329,1.217-2.443.453-4.878.951-7.326,1.377a1.49,1.49,0,0,0-1.4,1.2c-.35,1.431-.739,2.854-1.137,4.273a.734.734,0,0,0,.257.84c.947.843,1.884,1.7,2.826,2.546,1.168,1.053,2.333,2.109,3.509,3.153a.882.882,0,0,1,.231,1.226c-1.359,2.4-2.694,4.811-4.08,7.193-.429.737-.665.781-1.483.494q-3.9-1.368-7.787-2.779a.719.719,0,0,0-.91.2c-1.119,1.174-2.246,2.342-3.424,3.455a1.032,1.032,0,0,0-.269,1.317c.929,2.509,1.815,5.035,2.7,7.56.262.746.192.918-.394,1.359a5.387,5.387,0,0,1-.557.379c-2.02,1.151-4.017,2.345-6.072,3.43-1.472.778-1.292.849-2.448-.429-1.745-1.927-3.417-3.921-5.106-5.9a.632.632,0,0,0-.77-.243c-1.51.429-3.027.835-4.551,1.206a1.112,1.112,0,0,0-.942.995q-.368,2.108-.782,4.209c-.267,1.352-.563,2.7-.844,4.047a.818.818,0,0,1-.852.751,1.515,1.515,0,0,0-.325.078H1472.5c-.139-.029-.277-.071-.419-.086-.689-.074-.819-.159-.988-.835q-.291-1.166-.517-2.348c-.365-1.922-.727-3.845-1.059-5.773a1.157,1.157,0,0,0-1.05-1.061c-.709-.13-1.407-.316-2.108-.486-.825-.2-1.649-.4-2.471-.614a.659.659,0,0,0-.749.278c-.455.561-.927,1.109-1.4,1.651-1.379,1.565-2.769,3.121-4.144,4.691a.876.876,0,0,1-1.227.208c-2.4-1.358-4.811-2.695-7.193-4.081-.721-.419-.768-.652-.492-1.441q1.382-3.948,2.807-7.88a.627.627,0,0,0-.163-.79q-1.891-1.82-3.735-3.689a.634.634,0,0,0-.79-.166q-3.817,1.392-7.647,2.744c-1.023.359-1.215.3-1.777-.619-.911-1.491-1.787-3-2.647-4.527-.487-.865-.905-1.769-1.367-2.649a.7.7,0,0,1,.167-.943c.743-.687,1.466-1.393,2.223-2.063,1.419-1.256,2.86-2.485,4.275-3.745a.772.772,0,0,0,.263-.595c-.413-1.664-.865-3.319-1.311-4.975a.862.862,0,0,0-.779-.675c-.729-.109-1.455-.246-2.179-.385-1.984-.379-3.97-.749-5.947-1.158-.8-.165-.919-.306-.932-1.1-.04-2.648-.043-5.3-.056-7.945,0-.159.045-.319.049-.479a.752.752,0,0,1,.655-.773c.546-.129,1.088-.278,1.639-.384,2.22-.427,4.441-.851,6.665-1.255a1.142,1.142,0,0,0,1.04-.953c.375-1.557.8-3.1,1.229-4.646a.47.47,0,0,0-.165-.577c-.837-.7-1.672-1.4-2.492-2.125-1.374-1.207-2.735-2.429-4.1-3.643a.838.838,0,0,1-.2-1.153c1.362-2.416,2.7-4.843,4.094-7.242.418-.721.662-.773,1.441-.5q3.971,1.388,7.925,2.823a.594.594,0,0,0,.746-.167q1.809-1.869,3.657-3.7a.7.7,0,0,0,.2-.868q-1.422-3.882-2.785-7.786c-.284-.808-.215-1.02.5-1.488.79-.519,1.6-1.01,2.425-1.474,1.495-.841,3-1.673,4.515-2.469.9-.473.963-.439,1.7.291q.6.6,1.148,1.234c1.455,1.692,2.9,3.4,4.357,5.083a.639.639,0,0,0,.5.217c1.647-.415,3.285-.862,4.926-1.3a.847.847,0,0,0,.69-.709c.175-.929.374-1.855.554-2.783.359-1.857.7-3.719,1.078-5.572.151-.733.295-.833,1.05-.871,1.025-.051,2.053-.085,3.08-.082,1.781.006,3.562.048,5.343.072a.787.787,0,0,1,.831.709c.085.391.205.775.281,1.168.455,2.378.912,4.756,1.343,7.139a1.112,1.112,0,0,0,.952.982c1.555.383,3.1.8,4.646,1.229a.463.463,0,0,0,.579-.157c.331-.413.685-.808,1.033-1.208,1.5-1.719,2.973-3.456,4.5-5.149.7-.772.787-.787,1.688-.293q3.395,1.859,6.741,3.809c.97.567,1.008.752.638,1.8q-1.349,3.832-2.74,7.649a.6.6,0,0,0,.151.753q1.851,1.828,3.655,3.7a.715.715,0,0,0,.907.2q3.86-1.41,7.741-2.763c.883-.31,1.087-.247,1.589.555.773,1.237,1.515,2.5,2.237,3.763q.868,1.525,1.654,3.1c.459.911.445.953-.274,1.648-.623.6-1.269,1.181-1.915,1.759-1.4,1.253-2.81,2.493-4.2,3.753-.161.145-.37.418-.331.575.42,1.678.882,3.345,1.341,5.013a.9.9,0,0,0,.8.654c2.585.483,5.165.993,7.75,1.472C1522.856,594.858,1523.429,595.095,1523.465,595.945ZM1476.23,622.2a22.214,22.214,0,1,0-22.169-22.253A22.439,22.439,0,0,0,1476.23,622.2Z" transform="translate(-1429.083 -552.789)"/>
        </g>
      </g>
      <g id="Group_197" data-name="Group 197" transform="translate(1043.814 560.061)">
        <path id="Path_96" data-name="Path 96" class="cls-18" d="M1743.792,853.494c1.743.718,3.706.922,4.648,2.009,7.157,8.265,15.627,9.075,24.963,4.574a12.576,12.576,0,0,0,5.307-4.616c1.758-3.075,2.737-6.607,3.933-9.986,1.128-3.187,3.309-4.121,6.439-3.334.165.041.339.05.5.1,18.317,5.1,15.448,1.48,13.133,18.6-.473,3.5,1,5.331,3,7.932,5.841,7.563,12.563,8.612,20.9,5.021,4.347-1.872,7.131-.233,8.159,4.6a40.044,40.044,0,0,0,2.925,8.721c1.735,3.666.545,6.492-2.791,7.413-9.709,2.681-14.4,8.167-15.9,18.647-.86,6.011-.332,9.619,3.469,13.854,7.895,8.8,8.055,7.384-.4,16.087-1.071,1.1-2.216,2.144-3.193,3.323-2.4,2.89-5.5,3.761-7.838.78-7.8-9.965-17.219-7.36-26.813-4.017a7.879,7.879,0,0,0-2.932,2.457,8.114,8.114,0,0,0-.965,2.353c-6.707,16.975-2.666,13.963-21.562,9.624-2.985-.685-4.293-2.595-3.546-5.7.119-.5.154-1.012.227-1.519,1.957-13.552,2-13.6-8.244-22.374a6.436,6.436,0,0,0-4.523-1.066c-4.057.51-8.044,1.849-12.093,2.007a6.827,6.827,0,0,1-5.234-3.107,41.356,41.356,0,0,1-3.831-11.613c-.293-1.753,1.143-5.215,2.457-5.591,9.987-2.864,15.239-8.6,16.555-19.433.635-5.222.575-8.5-2.837-12.575-8.476-10.133-9.469-7.629.663-18.043C1740.014,856.928,1741.791,855.377,1743.792,853.494Zm11.653,54.18c3.639,13.954,16.5,21.792,30.054,18.321,13.391-3.429,21.766-17.136,18.5-30.287a25.514,25.514,0,0,0-30.962-18.211A24.7,24.7,0,0,0,1755.446,907.674Z" transform="translate(-1617.647 -841.877)"/>
        <path id="Path_97" data-name="Path 97" class="cls-19" d="M1588.015,855.262c1.744.718,3.707.922,4.649,2.01,7.157,8.265,15.627,9.075,24.962,4.573a12.572,12.572,0,0,0,5.307-4.615c1.757-3.075,2.737-6.607,3.933-9.986,1.129-3.187,3.309-4.121,6.439-3.334.165.041.339.049.5.1,18.317,5.1,15.448,1.48,13.133,18.6-.473,3.5,1,5.331,3,7.931,5.841,7.563,12.564,8.612,20.9,5.021,4.347-1.871,7.131-.233,8.159,4.6a40.058,40.058,0,0,0,2.925,8.721c1.734,3.665.545,6.492-2.791,7.413-9.709,2.681-14.4,8.167-15.9,18.647-.859,6.011-.332,9.619,3.469,13.854,7.895,8.8,8.055,7.385-.4,16.087-1.071,1.1-2.216,2.143-3.194,3.323-2.4,2.891-5.5,3.761-7.837.78-7.8-9.965-17.219-7.36-26.813-4.017a7.9,7.9,0,0,0-2.933,2.457,8.1,8.1,0,0,0-.965,2.353c-6.707,16.975-2.666,13.963-21.563,9.625-2.985-.685-4.294-2.6-3.547-5.7.119-.5.154-1.011.227-1.518,1.957-13.552,2-13.6-8.243-22.375a6.439,6.439,0,0,0-4.523-1.065c-4.056.51-8.044,1.849-12.092,2.007a6.827,6.827,0,0,1-5.235-3.108,41.382,41.382,0,0,1-3.831-11.613c-.293-1.753,1.143-5.214,2.457-5.591,9.988-2.865,15.239-8.6,16.556-19.433.635-5.223.574-8.5-2.837-12.576-8.476-10.133-9.469-7.629.662-18.043C1584.236,858.7,1586.013,857.146,1588.015,855.262Zm11.654,54.18c3.639,13.955,16.5,21.793,30.054,18.321,13.391-3.428,21.765-17.136,18.5-30.287a25.514,25.514,0,0,0-30.963-18.211A24.7,24.7,0,0,0,1599.668,909.442Z" transform="translate(-1565.721 -842.467)"/>
        <path id="Path_98" data-name="Path 98" class="cls-20" d="M1750.724,1013.36c1.744.717,3.707.922,4.649,2.009,7.157,8.265,15.627,9.075,24.962,4.574a12.579,12.579,0,0,0,5.307-4.616c1.757-3.075,2.737-6.607,3.933-9.986,1.129-3.187,3.309-4.121,6.439-3.334.165.041.339.05.5.1,18.317,5.1,15.448,1.48,13.133,18.6-.473,3.5,1,5.331,3,7.932,5.841,7.563,12.564,8.612,20.9,5.021,4.347-1.872,7.131-.233,8.159,4.6a40.018,40.018,0,0,0,2.926,8.721c1.734,3.666.544,6.492-2.792,7.413-9.709,2.681-14.4,8.167-15.9,18.647-.86,6.011-.332,9.619,3.469,13.855,7.895,8.8,8.055,7.384-.4,16.087-1.071,1.1-2.216,2.143-3.194,3.323-2.4,2.89-5.5,3.761-7.837.779-7.8-9.965-17.219-7.359-26.814-4.017a7.9,7.9,0,0,0-2.932,2.458,8.089,8.089,0,0,0-.965,2.352c-6.707,16.975-2.667,13.963-21.563,9.625-2.985-.685-4.294-2.595-3.547-5.7.119-.5.154-1.012.227-1.519,1.957-13.552,2-13.6-8.243-22.374a6.439,6.439,0,0,0-4.523-1.066c-4.056.51-8.044,1.849-12.092,2.007a6.828,6.828,0,0,1-5.235-3.108,41.368,41.368,0,0,1-3.831-11.613c-.293-1.753,1.143-5.214,2.457-5.591,9.988-2.864,15.239-8.6,16.556-19.433.635-5.222.574-8.5-2.837-12.575-8.475-10.134-9.469-7.629.663-18.043C1746.947,1016.794,1748.723,1015.243,1750.724,1013.36Zm11.654,54.18c3.639,13.954,16.5,21.792,30.054,18.321,13.391-3.429,21.765-17.136,18.5-30.287a25.514,25.514,0,0,0-30.963-18.211A24.7,24.7,0,0,0,1762.378,1067.54Z" transform="translate(-1619.958 -895.166)"/>
      </g>
      <circle id="Ellipse_23" data-name="Ellipse 23" class="cls-21" cx="66.409" cy="66.409" r="66.409" transform="translate(598.323 581.312)"/>
      <g id="Group_198" data-name="Group 198" transform="translate(43.225 231.793)">
        <path id="Path_99" data-name="Path 99" class="cls-22" d="M64.837,415.352v-10.4c.039-1.1.789-1.4,1.708-1.565,3.141-.581,6.27-1.221,9.416-1.77a1.916,1.916,0,0,0,1.794-1.545c.449-1.84.949-3.669,1.461-5.492a.943.943,0,0,0-.331-1.08c-1.216-1.085-2.421-2.182-3.632-3.273-1.5-1.353-3-2.711-4.51-4.053a1.133,1.133,0,0,1-.3-1.575c1.747-3.083,3.463-6.183,5.244-9.246.55-.947.855-1,1.906-.635q5.013,1.758,10.007,3.571a.924.924,0,0,0,1.17-.257c1.437-1.509,2.887-3.01,4.4-4.441a1.325,1.325,0,0,0,.346-1.693c-1.193-3.225-2.333-6.471-3.472-9.717-.337-.959-.247-1.181.507-1.747a6.822,6.822,0,0,1,.715-.487c2.6-1.48,5.163-3.013,7.8-4.409,1.892-1,1.661-1.091,3.147.551,2.242,2.477,4.391,5.039,6.562,7.58a.813.813,0,0,0,.99.311c1.94-.551,3.89-1.073,5.85-1.55a1.429,1.429,0,0,0,1.21-1.279q.474-2.709,1.005-5.409c.343-1.737.724-3.468,1.085-5.2a1.052,1.052,0,0,1,1.1-.965,1.941,1.941,0,0,0,.417-.1h9.906a5.421,5.421,0,0,0,.538.111c.886.1,1.054.2,1.271,1.074q.374,1.5.663,3.018c.47,2.47.935,4.941,1.362,7.419a1.489,1.489,0,0,0,1.35,1.364c.911.167,1.808.407,2.709.625,1.061.256,2.121.516,3.177.789a.849.849,0,0,0,.963-.357c.585-.721,1.191-1.425,1.8-2.122,1.773-2.012,3.559-4.012,5.326-6.029a1.126,1.126,0,0,1,1.577-.268c3.084,1.746,6.183,3.464,9.246,5.245.927.539.987.839.632,1.853q-1.776,5.074-3.608,10.128a.807.807,0,0,0,.211,1.015q2.431,2.34,4.8,4.743a.816.816,0,0,0,1.016.213q4.905-1.789,9.829-3.527c1.315-.462,1.561-.387,2.283.8,1.171,1.917,2.3,3.863,3.4,5.819.627,1.111,1.164,2.273,1.757,3.4a.906.906,0,0,1-.215,1.213c-.955.882-1.885,1.791-2.857,2.652-1.823,1.614-3.676,3.194-5.495,4.813a.992.992,0,0,0-.339.764c.531,2.139,1.112,4.265,1.685,6.394a1.108,1.108,0,0,0,1,.869c.937.139,1.87.315,2.8.494,2.55.487,5.1.963,7.645,1.488,1.022.212,1.181.393,1.2,1.419.051,3.4.055,6.807.072,10.211,0,.205-.057.41-.063.615a.967.967,0,0,1-.841.993c-.7.167-1.4.357-2.106.493-2.853.549-5.708,1.094-8.567,1.614a1.469,1.469,0,0,0-1.337,1.225c-.483,2-1.028,3.988-1.579,5.972a.606.606,0,0,0,.213.741c1.077.9,2.149,1.8,3.2,2.731,1.766,1.552,3.516,3.123,5.275,4.683a1.078,1.078,0,0,1,.254,1.481c-1.75,3.1-3.474,6.225-5.262,9.308-.537.927-.851.994-1.852.644q-5.105-1.784-10.187-3.627a.764.764,0,0,0-.959.215q-2.324,2.4-4.7,4.756a.9.9,0,0,0-.263,1.115q1.828,4.99,3.58,10.008c.365,1.039.277,1.311-.64,1.912-1.016.667-2.058,1.3-3.117,1.895-1.921,1.081-3.851,2.151-5.8,3.174-1.161.607-1.239.563-2.181-.375-.511-.509-1-1.039-1.475-1.586-1.87-2.175-3.723-4.365-5.6-6.533a.823.823,0,0,0-.645-.28c-2.117.533-4.222,1.109-6.331,1.669a1.09,1.09,0,0,0-.887.911c-.225,1.195-.48,2.384-.711,3.577-.463,2.387-.9,4.78-1.386,7.161-.194.943-.379,1.072-1.349,1.12-1.319.065-2.639.109-3.959.1-2.289-.007-4.579-.061-6.868-.092a1.012,1.012,0,0,1-1.067-.911c-.109-.5-.265-1-.361-1.5-.585-3.057-1.172-6.113-1.726-9.175a1.428,1.428,0,0,0-1.223-1.262c-2-.493-3.987-1.031-5.972-1.579a.6.6,0,0,0-.743.2c-.426.531-.881,1.039-1.327,1.553-1.923,2.21-3.821,4.442-5.781,6.618-.895.993-1.012,1.011-2.169.377q-4.364-2.39-8.665-4.9c-1.247-.729-1.3-.966-.82-2.317q1.733-4.926,3.522-9.832a.777.777,0,0,0-.195-.969q-2.379-2.348-4.7-4.758a.921.921,0,0,0-1.167-.26q-4.961,1.813-9.949,3.553c-1.136.4-1.4.317-2.042-.714-.993-1.591-1.948-3.207-2.876-4.837q-1.116-1.961-2.126-3.981c-.59-1.171-.571-1.225.352-2.119.8-.774,1.632-1.517,2.462-2.26,1.8-1.61,3.612-3.2,5.4-4.823.206-.187.475-.537.425-.739-.54-2.157-1.133-4.3-1.724-6.444a1.156,1.156,0,0,0-1.029-.841c-3.323-.621-6.638-1.275-9.961-1.892C65.62,416.75,64.884,416.445,64.837,415.352ZM125.549,381.6a28.842,28.842,0,0,0-28.593,28.7c-.006,14.357,11.95,28.3,28.372,28.4a28.552,28.552,0,1,0,.221-57.1Z" transform="translate(-64.837 -349.475)"/>
      </g>
    </g>
  </g>
</svg>
