<svg xmlns="http://www.w3.org/2000/svg" xmlns:xlink="http://www.w3.org/1999/xlink" width="316.04" height="1208.374" viewBox="0 0 316.04 1208.374"><defs><style>.a,.c,.e,.f,.h,.k,.m,.n{fill:none;}.a,.k,.m,.n{stroke:#f8cd36;}.a,.f,.h,.j{stroke-miterlimit:10;}.a{stroke-width:1.002px;}.b{opacity:0.2;}.c,.f{stroke:#4d4d4d;}.c,.e,.k,.m,.n{stroke-linecap:round;stroke-linejoin:round;}.d,.l{opacity:0.5;}.e,.h,.j{stroke:#333;}.e{stroke-width:0.553px;}.f{stroke-width:12.488px;}.g{fill:#4d4d4d;}.h{stroke-width:13.073px;}.i,.j{fill:#1c1c1c;}.k{stroke-width:0.707px;}.l{fill:#333;}.m{stroke-width:1.053px;}.n{stroke-width:1.008px;}.o{filter:url(#a);}</style><filter id="a" x="0" y="0" width="316.04" height="1191.967" filterUnits="userSpaceOnUse"><feOffset input="SourceAlpha"/><feGaussianBlur stdDeviation="2.506" result="b"/><feFlood flood-color="#f8cd36" flood-opacity="0.749"/><feComposite operator="in" in2="b"/><feComposite in="SourceGraphic"/></filter></defs><g transform="translate(8.02 8.02)"><g class="o" transform="matrix(1, 0, 0, 1, -8.02, -8.02)"><rect class="a" width="300" height="1175.927" rx="10.963" transform="translate(8.02 8.02)"/></g><g class="b" transform="translate(48.679 1142.959)"><line class="c" x2="33.894"/><line class="c" x2="33.894" transform="translate(55.615)"/><line class="c" x2="33.894" transform="translate(109.346)"/></g><g class="d" transform="translate(167.815 56.507)"><line class="e" x2="16.156"/><line class="e" x2="16.156" transform="translate(26.51)"/><line class="e" x2="16.156" transform="translate(52.122)"/></g><g class="b" transform="translate(55.053 472.528)"><circle class="f" cx="90.72" cy="90.72" r="90.72" transform="translate(4.254 4.254)"/><g transform="translate(22.761 26.184)"><g transform="translate(2.532 0.001)"><path class="g" d="M173.2,677.286a8.129,8.129,0,0,1-5.748-13.876L294.213,536.646a8.128,8.128,0,0,1,11.5,11.494L178.944,674.9A8.1,8.1,0,0,1,173.2,677.286Z" transform="translate(-165.068 -534.266)"/></g><path class="g" d="M298.218,677.286a8.1,8.1,0,0,1-5.748-2.381L165.706,548.141A8.128,8.128,0,0,1,177.2,536.646L303.966,663.41a8.129,8.129,0,0,1-5.748,13.876Z" transform="translate(-163.325 -534.265)"/></g><circle class="h" cx="94.973" cy="94.973" r="94.973"/><g transform="translate(24.026 23.651)"><path class="i" d="M172.325,675.543a8.129,8.129,0,0,1-5.748-13.876L293.343,534.9A8.128,8.128,0,1,1,304.837,546.4L178.073,673.162A8.1,8.1,0,0,1,172.325,675.543Z" transform="translate(-164.196 -532.522)"/><path class="i" d="M299.089,675.543a8.1,8.1,0,0,1-5.746-2.381L166.577,546.4a8.128,8.128,0,0,1,11.5-11.494L304.837,661.667a8.129,8.129,0,0,1-5.748,13.876Z" transform="translate(-164.196 -532.522)"/></g><circle class="j" cx="52.763" cy="52.763" r="52.763" transform="translate(42.21 42.21)"/></g><g transform="translate(40.52 1175.927)"><path class="k" d="M165.506,734.214h-47.2a6.214,6.214,0,0,1-5.575-3.128l-10.827-20.944h80l-10.825,20.944A6.218,6.218,0,0,1,165.506,734.214Z" transform="translate(-101.907 -710.142)"/></g><g transform="translate(178.427 1175.927)"><path class="k" d="M324.2,734.214H276.865a6.235,6.235,0,0,1-5.591-3.128l-10.858-20.944h80.23L329.79,731.086A6.239,6.239,0,0,1,324.2,734.214Z" transform="translate(-260.417 -710.142)"/></g><g transform="translate(150.914 1026.102)"><g class="d"><rect class="l" width="24.134" height="13.466" rx="2.108"/><rect class="l" width="24.134" height="13.466" rx="2.108" transform="translate(0 30.062)"/><rect class="l" width="24.134" height="13.466" rx="2.108" transform="translate(0 60.124)"/></g><g class="d" transform="translate(39.423)"><rect class="l" width="24.134" height="13.466" rx="2.108"/><rect class="l" width="24.134" height="13.466" rx="2.108" transform="translate(0 30.062)"/><rect class="l" width="24.134" height="13.466" rx="2.108" transform="translate(0 60.124)"/></g><g class="d" transform="translate(78.845)"><rect class="l" width="24.134" height="13.466" rx="2.108"/><rect class="l" width="24.134" height="13.466" rx="2.108" transform="translate(0 30.062)"/><rect class="l" width="24.134" height="13.466" rx="2.108" transform="translate(0 60.124)"/></g></g><g class="d" transform="translate(16.302 17.138)"><path class="m" d="M90.94,604.665V497.229c0-27.734-.608-24.886,21.375-24.886H336.95c21.981,0,21.375-2.848,21.375,24.886V1584.093c0,24.988,1.09,32.16-19.856,32.16-.286.057-226.154.1-226.154.1-22.363,0-21.375-4.527-21.375-32.261V1451.736" transform="translate(-90.933 -472.26)"/><path class="n" d="M90.939,493.427h20.9v132.16h-20.9" transform="translate(-90.934 -434.721)"/><path class="n" d="M90.939,631.093h20.9v72.6h-20.9" transform="translate(-90.934 236.053)"/><line class="n" y2="171.572" transform="translate(0.005 534.947)"/></g></g></svg>