<svg xmlns="http://www.w3.org/2000/svg" xmlns:xlink="http://www.w3.org/1999/xlink" width="318.67" height="459.688" viewBox="0 0 318.67 459.688"><defs><style>.a,.c,.e,.f,.g,.i,.l,.m,.n,.o{fill:none;}.a,.f,.l,.m,.n,.o{stroke:#f8cd36;}.a,.g,.i,.k{stroke-miterlimit:10;}.a{stroke-width:1.167px;}.b{opacity:0.2;}.c,.g{stroke:#4d4d4d;}.c,.e,.f,.l,.m,.n,.o{stroke-linecap:round;stroke-linejoin:round;}.d,.p{opacity:0.5;}.e,.i,.k{stroke:#333;}.e{stroke-width:0.642px;}.f{stroke-width:1.192px;}.g{stroke-width:12.488px;}.h{fill:#4d4d4d;}.i{stroke-width:13.073px;}.j,.k{fill:#1c1c1c;}.l{stroke-width:0.707px;}.m{stroke-width:1.177px;}.n{stroke-width:1.008px;}.p{fill:#333;}.q{filter:url(#a);}</style><filter id="a" x="0" y="0" width="318.67" height="457.766" filterUnits="userSpaceOnUse"><feOffset input="SourceAlpha"/><feGaussianBlur stdDeviation="2.917" result="b"/><feFlood flood-color="#f8cd36" flood-opacity="0.749"/><feComposite operator="in" in2="b"/><feComposite in="SourceGraphic"/></filter></defs><g transform="translate(9.335 9.335)"><g class="q" transform="matrix(1, 0, 0, 1, -9.33, -9.33)"><rect class="a" width="300" height="439.096" rx="12.761" transform="translate(9.33 9.33)"/></g><g class="b" transform="translate(82.763 414.266)"><line class="c" x2="15.353"/><line class="c" x2="15.353" transform="translate(25.191)"/><line class="c" x2="15.353" transform="translate(49.53)"/></g><g class="d" transform="translate(218.138 25.596)"><line class="e" x2="9.851"/><line class="e" x2="9.851" transform="translate(16.164)"/><line class="e" x2="9.851" transform="translate(31.78)"/></g><path class="f" d="M84.443,152.4V117.436c0-9.655,5.244-17.482,11.713-17.482h251.9c6.469,0,11.713,7.827,11.713,17.482V493.405c0,9.655-5.244,17.482-11.713,17.482H96.156c-6.469,0-11.713-7.827-11.713-17.482V472.035" transform="translate(-71.819 -85.872)"/><g class="b" transform="translate(52.39 146.951)"><circle class="g" cx="62.438" cy="62.438" r="62.438" transform="translate(2.928 2.928)"/><g transform="translate(15.665 18.021)"><g transform="translate(1.744 0)"><path class="h" d="M162.687,265.494a5.594,5.594,0,0,1-3.956-9.55L245.978,168.7a5.594,5.594,0,1,1,7.911,7.912l-87.246,87.246A5.577,5.577,0,0,1,162.687,265.494Z" transform="translate(-157.093 -167.06)"/></g><path class="h" d="M248.191,265.494a5.577,5.577,0,0,1-3.956-1.638L156.988,176.61A5.595,5.595,0,1,1,164.9,168.7l87.246,87.246a5.594,5.594,0,0,1-3.955,9.55Z" transform="translate(-155.349 -167.059)"/></g><circle class="i" cx="65.366" cy="65.366" r="65.366"/><g transform="translate(16.537 16.278)"><g transform="translate(0 0)"><path class="j" d="M161.816,263.751a5.595,5.595,0,0,1-3.956-9.55l87.246-87.246a5.594,5.594,0,0,1,7.912,7.911l-87.247,87.246A5.573,5.573,0,0,1,161.816,263.751Z" transform="translate(-156.221 -165.317)"/></g><path class="j" d="M249.062,263.751a5.576,5.576,0,0,1-3.956-1.639L157.86,174.866a5.594,5.594,0,0,1,7.911-7.911L253.018,254.2a5.595,5.595,0,0,1-3.956,9.55Z" transform="translate(-156.221 -165.316)"/></g><circle class="k" cx="36.314" cy="36.314" r="36.314" transform="translate(29.051 29.051)"/></g><g transform="translate(18.355 439.096)"><path class="l" d="M140.063,353.84H103.039a6.173,6.173,0,0,1-4.373-1.417l-8.492-9.487h62.755l-8.492,9.487A6.176,6.176,0,0,1,140.063,353.84Z" transform="translate(-90.174 -342.936)"/></g><g transform="translate(216.865 439.096)"><path class="l" d="M388.573,353.84H351.549a6.173,6.173,0,0,1-4.373-1.417l-8.492-9.487h62.755l-8.492,9.487A6.175,6.175,0,0,1,388.573,353.84Z" transform="translate(-338.684 -342.936)"/></g><g transform="translate(3.989 188.168)"><line class="m" y1="49.702" transform="translate(8.634 8.492)"/><ellipse class="n" cx="5.451" cy="5.362" rx="5.451" ry="5.362" transform="translate(3.579 53.652)"/><ellipse class="n" cx="8.634" cy="8.492" rx="8.634" ry="8.492"/></g><g transform="translate(7.993 102.696)"><line class="o" x2="33.89"/><line class="o" x2="26.486" transform="translate(0 13.021)"/><line class="o" x2="18.061" transform="translate(0 24.255)"/></g><g transform="translate(7.993 311.88)"><line class="o" x2="33.89"/><line class="o" x2="26.486" transform="translate(0 13.021)"/><line class="o" x2="18.061" transform="translate(0 24.255)"/></g><g class="d" transform="translate(193.986 140.145)"><path class="p" d="M381.585,170.97a7.123,7.123,0,0,1-7.12,7.12h-51.53a7.125,7.125,0,0,1-7.13-7.12v-1.82a5.907,5.907,0,0,1,.1-1.12v1.79a7.127,7.127,0,0,0,7.13,7.13h51.53A7.111,7.111,0,0,0,381.585,170.97Z" transform="translate(-315.805 -168.03)"/></g><g class="d" transform="translate(209.382 191.498)"><rect class="p" width="14.715" height="6.1" rx="2.446"/><rect class="p" width="14.715" height="6.1" rx="2.446" transform="translate(0 13.617)"/><rect class="p" width="14.715" height="6.1" rx="2.446" transform="translate(0 27.234)"/></g><g class="d" transform="translate(229.834 191.498)"><rect class="p" width="14.715" height="6.1" rx="2.446"/><rect class="p" width="14.715" height="6.1" rx="2.446" transform="translate(0 13.617)"/><rect class="p" width="14.715" height="6.1" rx="2.446" transform="translate(0 27.234)"/></g><g class="d" transform="translate(244.152 191.498)"><rect class="p" width="14.715" height="6.1" rx="2.446"/><rect class="p" width="14.715" height="6.1" rx="2.446" transform="translate(0 13.617)"/><rect class="p" width="14.715" height="6.1" rx="2.446" transform="translate(0 27.234)"/></g></g></svg>